G04 #@! TF.GenerationSoftware,KiCad,Pcbnew,(5.1.9)-1*
G04 #@! TF.CreationDate,2021-04-22T01:37:42+01:00*
G04 #@! TF.ProjectId,remote,72656d6f-7465-42e6-9b69-6361645f7063,rev?*
G04 #@! TF.SameCoordinates,Original*
G04 #@! TF.FileFunction,Legend,Top*
G04 #@! TF.FilePolarity,Positive*
%FSLAX46Y46*%
G04 Gerber Fmt 4.6, Leading zero omitted, Abs format (unit mm)*
G04 Created by KiCad (PCBNEW (5.1.9)-1) date 2021-04-22 01:37:42*
%MOMM*%
%LPD*%
G01*
G04 APERTURE LIST*
%ADD10C,0.120000*%
%ADD11C,0.150000*%
%ADD12O,1.600000X1.600000*%
%ADD13C,1.600000*%
%ADD14O,1.700000X1.700000*%
%ADD15R,1.700000X1.700000*%
%ADD16R,1.600000X1.600000*%
%ADD17O,2.000000X1.905000*%
%ADD18R,2.000000X1.905000*%
%ADD19C,2.000000*%
%ADD20O,2.200000X2.200000*%
%ADD21R,2.200000X2.200000*%
%ADD22C,1.800000*%
%ADD23R,1.800000X1.800000*%
G04 APERTURE END LIST*
D10*
X48800000Y-30380000D02*
X48800000Y-30710000D01*
X55340000Y-30380000D02*
X48800000Y-30380000D01*
X55340000Y-30710000D02*
X55340000Y-30380000D01*
X48800000Y-33120000D02*
X48800000Y-32790000D01*
X55340000Y-33120000D02*
X48800000Y-33120000D01*
X55340000Y-32790000D02*
X55340000Y-33120000D01*
X31810000Y-32960000D02*
X31810000Y-34290000D01*
X30480000Y-32960000D02*
X31810000Y-32960000D01*
X31810000Y-35560000D02*
X31810000Y-38160000D01*
X29210000Y-35560000D02*
X31810000Y-35560000D01*
X29210000Y-32960000D02*
X29210000Y-35560000D01*
X31810000Y-38160000D02*
X29150000Y-38160000D01*
X29210000Y-32960000D02*
X29150000Y-32960000D01*
X29150000Y-32960000D02*
X29150000Y-38160000D01*
X33100000Y-29190000D02*
G75*
G03*
X33100000Y-29190000I-2620000J0D01*
G01*
X33060000Y-29190000D02*
X27900000Y-29190000D01*
X33060000Y-29230000D02*
X27900000Y-29230000D01*
X33059000Y-29270000D02*
X27901000Y-29270000D01*
X33058000Y-29310000D02*
X27902000Y-29310000D01*
X33056000Y-29350000D02*
X27904000Y-29350000D01*
X33053000Y-29390000D02*
X27907000Y-29390000D01*
X33049000Y-29430000D02*
X31520000Y-29430000D01*
X29440000Y-29430000D02*
X27911000Y-29430000D01*
X33045000Y-29470000D02*
X31520000Y-29470000D01*
X29440000Y-29470000D02*
X27915000Y-29470000D01*
X33041000Y-29510000D02*
X31520000Y-29510000D01*
X29440000Y-29510000D02*
X27919000Y-29510000D01*
X33036000Y-29550000D02*
X31520000Y-29550000D01*
X29440000Y-29550000D02*
X27924000Y-29550000D01*
X33030000Y-29590000D02*
X31520000Y-29590000D01*
X29440000Y-29590000D02*
X27930000Y-29590000D01*
X33023000Y-29630000D02*
X31520000Y-29630000D01*
X29440000Y-29630000D02*
X27937000Y-29630000D01*
X33016000Y-29670000D02*
X31520000Y-29670000D01*
X29440000Y-29670000D02*
X27944000Y-29670000D01*
X33008000Y-29710000D02*
X31520000Y-29710000D01*
X29440000Y-29710000D02*
X27952000Y-29710000D01*
X33000000Y-29750000D02*
X31520000Y-29750000D01*
X29440000Y-29750000D02*
X27960000Y-29750000D01*
X32991000Y-29790000D02*
X31520000Y-29790000D01*
X29440000Y-29790000D02*
X27969000Y-29790000D01*
X32981000Y-29830000D02*
X31520000Y-29830000D01*
X29440000Y-29830000D02*
X27979000Y-29830000D01*
X32971000Y-29870000D02*
X31520000Y-29870000D01*
X29440000Y-29870000D02*
X27989000Y-29870000D01*
X32960000Y-29911000D02*
X31520000Y-29911000D01*
X29440000Y-29911000D02*
X28000000Y-29911000D01*
X32948000Y-29951000D02*
X31520000Y-29951000D01*
X29440000Y-29951000D02*
X28012000Y-29951000D01*
X32935000Y-29991000D02*
X31520000Y-29991000D01*
X29440000Y-29991000D02*
X28025000Y-29991000D01*
X32922000Y-30031000D02*
X31520000Y-30031000D01*
X29440000Y-30031000D02*
X28038000Y-30031000D01*
X32908000Y-30071000D02*
X31520000Y-30071000D01*
X29440000Y-30071000D02*
X28052000Y-30071000D01*
X32894000Y-30111000D02*
X31520000Y-30111000D01*
X29440000Y-30111000D02*
X28066000Y-30111000D01*
X32878000Y-30151000D02*
X31520000Y-30151000D01*
X29440000Y-30151000D02*
X28082000Y-30151000D01*
X32862000Y-30191000D02*
X31520000Y-30191000D01*
X29440000Y-30191000D02*
X28098000Y-30191000D01*
X32845000Y-30231000D02*
X31520000Y-30231000D01*
X29440000Y-30231000D02*
X28115000Y-30231000D01*
X32828000Y-30271000D02*
X31520000Y-30271000D01*
X29440000Y-30271000D02*
X28132000Y-30271000D01*
X32809000Y-30311000D02*
X31520000Y-30311000D01*
X29440000Y-30311000D02*
X28151000Y-30311000D01*
X32790000Y-30351000D02*
X31520000Y-30351000D01*
X29440000Y-30351000D02*
X28170000Y-30351000D01*
X32770000Y-30391000D02*
X31520000Y-30391000D01*
X29440000Y-30391000D02*
X28190000Y-30391000D01*
X32748000Y-30431000D02*
X31520000Y-30431000D01*
X29440000Y-30431000D02*
X28212000Y-30431000D01*
X32727000Y-30471000D02*
X31520000Y-30471000D01*
X29440000Y-30471000D02*
X28233000Y-30471000D01*
X32704000Y-30511000D02*
X31520000Y-30511000D01*
X29440000Y-30511000D02*
X28256000Y-30511000D01*
X32680000Y-30551000D02*
X31520000Y-30551000D01*
X29440000Y-30551000D02*
X28280000Y-30551000D01*
X32655000Y-30591000D02*
X31520000Y-30591000D01*
X29440000Y-30591000D02*
X28305000Y-30591000D01*
X32629000Y-30631000D02*
X31520000Y-30631000D01*
X29440000Y-30631000D02*
X28331000Y-30631000D01*
X32602000Y-30671000D02*
X31520000Y-30671000D01*
X29440000Y-30671000D02*
X28358000Y-30671000D01*
X32575000Y-30711000D02*
X31520000Y-30711000D01*
X29440000Y-30711000D02*
X28385000Y-30711000D01*
X32545000Y-30751000D02*
X31520000Y-30751000D01*
X29440000Y-30751000D02*
X28415000Y-30751000D01*
X32515000Y-30791000D02*
X31520000Y-30791000D01*
X29440000Y-30791000D02*
X28445000Y-30791000D01*
X32484000Y-30831000D02*
X31520000Y-30831000D01*
X29440000Y-30831000D02*
X28476000Y-30831000D01*
X32451000Y-30871000D02*
X31520000Y-30871000D01*
X29440000Y-30871000D02*
X28509000Y-30871000D01*
X32417000Y-30911000D02*
X31520000Y-30911000D01*
X29440000Y-30911000D02*
X28543000Y-30911000D01*
X32381000Y-30951000D02*
X31520000Y-30951000D01*
X29440000Y-30951000D02*
X28579000Y-30951000D01*
X32344000Y-30991000D02*
X31520000Y-30991000D01*
X29440000Y-30991000D02*
X28616000Y-30991000D01*
X32306000Y-31031000D02*
X31520000Y-31031000D01*
X29440000Y-31031000D02*
X28654000Y-31031000D01*
X32265000Y-31071000D02*
X31520000Y-31071000D01*
X29440000Y-31071000D02*
X28695000Y-31071000D01*
X32223000Y-31111000D02*
X31520000Y-31111000D01*
X29440000Y-31111000D02*
X28737000Y-31111000D01*
X32179000Y-31151000D02*
X31520000Y-31151000D01*
X29440000Y-31151000D02*
X28781000Y-31151000D01*
X32133000Y-31191000D02*
X31520000Y-31191000D01*
X29440000Y-31191000D02*
X28827000Y-31191000D01*
X32085000Y-31231000D02*
X31520000Y-31231000D01*
X29440000Y-31231000D02*
X28875000Y-31231000D01*
X32034000Y-31271000D02*
X31520000Y-31271000D01*
X29440000Y-31271000D02*
X28926000Y-31271000D01*
X31980000Y-31311000D02*
X31520000Y-31311000D01*
X29440000Y-31311000D02*
X28980000Y-31311000D01*
X31923000Y-31351000D02*
X31520000Y-31351000D01*
X29440000Y-31351000D02*
X29037000Y-31351000D01*
X31863000Y-31391000D02*
X31520000Y-31391000D01*
X29440000Y-31391000D02*
X29097000Y-31391000D01*
X31799000Y-31431000D02*
X31520000Y-31431000D01*
X29440000Y-31431000D02*
X29161000Y-31431000D01*
X31731000Y-31471000D02*
X31520000Y-31471000D01*
X29440000Y-31471000D02*
X29229000Y-31471000D01*
X31658000Y-31511000D02*
X29302000Y-31511000D01*
X31578000Y-31551000D02*
X29382000Y-31551000D01*
X31491000Y-31591000D02*
X29469000Y-31591000D01*
X31395000Y-31631000D02*
X29565000Y-31631000D01*
X31285000Y-31671000D02*
X29675000Y-31671000D01*
X31157000Y-31711000D02*
X29803000Y-31711000D01*
X30998000Y-31751000D02*
X29962000Y-31751000D01*
X30764000Y-31791000D02*
X30196000Y-31791000D01*
X31955000Y-26385225D02*
X31955000Y-26885225D01*
X32205000Y-26635225D02*
X31705000Y-26635225D01*
X27400000Y-33601000D02*
X25890000Y-33601000D01*
X27400000Y-29900000D02*
X25890000Y-29900000D01*
X25890000Y-26630000D02*
X25890000Y-36870000D01*
X27400000Y-36870000D02*
X22759000Y-36870000D01*
X27400000Y-26630000D02*
X22759000Y-26630000D01*
X22759000Y-26630000D02*
X22759000Y-36870000D01*
X27400000Y-26630000D02*
X27400000Y-36870000D01*
X42580000Y-26870000D02*
X42580000Y-23930000D01*
X42340000Y-26870000D02*
X42340000Y-23930000D01*
X42460000Y-26870000D02*
X42460000Y-23930000D01*
X36900000Y-25400000D02*
X37920000Y-25400000D01*
X44380000Y-25400000D02*
X43360000Y-25400000D01*
X37920000Y-26870000D02*
X43360000Y-26870000D01*
X37920000Y-23930000D02*
X37920000Y-26870000D01*
X43360000Y-23930000D02*
X37920000Y-23930000D01*
X43360000Y-26870000D02*
X43360000Y-23930000D01*
X36290000Y-28285000D02*
X36290000Y-27840000D01*
X36290000Y-30580000D02*
X36290000Y-30135000D01*
X42530000Y-28285000D02*
X42530000Y-27840000D01*
X42530000Y-30580000D02*
X42530000Y-30135000D01*
X42530000Y-27840000D02*
X36290000Y-27840000D01*
X42530000Y-30580000D02*
X36290000Y-30580000D01*
X63560000Y-34230000D02*
X63560000Y-35560000D01*
X62230000Y-34230000D02*
X63560000Y-34230000D01*
X63560000Y-36830000D02*
X63560000Y-39430000D01*
X60960000Y-36830000D02*
X63560000Y-36830000D01*
X60960000Y-34230000D02*
X60960000Y-36830000D01*
X63560000Y-39430000D02*
X60900000Y-39430000D01*
X60960000Y-34230000D02*
X60900000Y-34230000D01*
X60900000Y-34230000D02*
X60900000Y-39430000D01*
X40750000Y-32960000D02*
X39100000Y-32960000D01*
X40750000Y-43240000D02*
X40750000Y-32960000D01*
X35450000Y-43240000D02*
X40750000Y-43240000D01*
X35450000Y-32960000D02*
X35450000Y-43240000D01*
X37100000Y-32960000D02*
X35450000Y-32960000D01*
X39100000Y-32960000D02*
G75*
G02*
X37100000Y-32960000I-1000000J0D01*
G01*
X49470000Y-25340000D02*
X50800000Y-25340000D01*
X49470000Y-26670000D02*
X49470000Y-25340000D01*
X52070000Y-25340000D02*
X54670000Y-25340000D01*
X52070000Y-27940000D02*
X52070000Y-25340000D01*
X49470000Y-27940000D02*
X52070000Y-27940000D01*
X54670000Y-25340000D02*
X54670000Y-28000000D01*
X49470000Y-27940000D02*
X49470000Y-28000000D01*
X49470000Y-28000000D02*
X54670000Y-28000000D01*
X48800000Y-40540000D02*
X48800000Y-40870000D01*
X55340000Y-40540000D02*
X48800000Y-40540000D01*
X55340000Y-40870000D02*
X55340000Y-40540000D01*
X48800000Y-43280000D02*
X48800000Y-42950000D01*
X55340000Y-43280000D02*
X48800000Y-43280000D01*
X55340000Y-42950000D02*
X55340000Y-43280000D01*
X48800000Y-35460000D02*
X48800000Y-35790000D01*
X55340000Y-35460000D02*
X48800000Y-35460000D01*
X55340000Y-35790000D02*
X55340000Y-35460000D01*
X48800000Y-38200000D02*
X48800000Y-37870000D01*
X55340000Y-38200000D02*
X48800000Y-38200000D01*
X55340000Y-37870000D02*
X55340000Y-38200000D01*
X63775000Y-26650000D02*
X60685000Y-26650000D01*
X64730000Y-29210000D02*
G75*
G03*
X64730000Y-29210000I-2500000J0D01*
G01*
X62230462Y-32200000D02*
G75*
G02*
X60685170Y-26650000I-462J2990000D01*
G01*
X62229538Y-32200000D02*
G75*
G03*
X63774830Y-26650000I462J2990000D01*
G01*
D11*
X51903333Y-34742380D02*
X51570000Y-34266190D01*
X51331904Y-34742380D02*
X51331904Y-33742380D01*
X51712857Y-33742380D01*
X51808095Y-33790000D01*
X51855714Y-33837619D01*
X51903333Y-33932857D01*
X51903333Y-34075714D01*
X51855714Y-34170952D01*
X51808095Y-34218571D01*
X51712857Y-34266190D01*
X51331904Y-34266190D01*
X52284285Y-33837619D02*
X52331904Y-33790000D01*
X52427142Y-33742380D01*
X52665238Y-33742380D01*
X52760476Y-33790000D01*
X52808095Y-33837619D01*
X52855714Y-33932857D01*
X52855714Y-34028095D01*
X52808095Y-34170952D01*
X52236666Y-34742380D01*
X52855714Y-34742380D01*
X32262380Y-35893333D02*
X32976666Y-35893333D01*
X33119523Y-35940952D01*
X33214761Y-36036190D01*
X33262380Y-36179047D01*
X33262380Y-36274285D01*
X33262380Y-34893333D02*
X33262380Y-35464761D01*
X33262380Y-35179047D02*
X32262380Y-35179047D01*
X32405238Y-35274285D01*
X32500476Y-35369523D01*
X32548095Y-35464761D01*
X34587142Y-29356666D02*
X34634761Y-29404285D01*
X34682380Y-29547142D01*
X34682380Y-29642380D01*
X34634761Y-29785238D01*
X34539523Y-29880476D01*
X34444285Y-29928095D01*
X34253809Y-29975714D01*
X34110952Y-29975714D01*
X33920476Y-29928095D01*
X33825238Y-29880476D01*
X33730000Y-29785238D01*
X33682380Y-29642380D01*
X33682380Y-29547142D01*
X33730000Y-29404285D01*
X33777619Y-29356666D01*
X34682380Y-28404285D02*
X34682380Y-28975714D01*
X34682380Y-28690000D02*
X33682380Y-28690000D01*
X33825238Y-28785238D01*
X33920476Y-28880476D01*
X33968095Y-28975714D01*
X27852380Y-32511904D02*
X28661904Y-32511904D01*
X28757142Y-32464285D01*
X28804761Y-32416666D01*
X28852380Y-32321428D01*
X28852380Y-32130952D01*
X28804761Y-32035714D01*
X28757142Y-31988095D01*
X28661904Y-31940476D01*
X27852380Y-31940476D01*
X27947619Y-31511904D02*
X27900000Y-31464285D01*
X27852380Y-31369047D01*
X27852380Y-31130952D01*
X27900000Y-31035714D01*
X27947619Y-30988095D01*
X28042857Y-30940476D01*
X28138095Y-30940476D01*
X28280952Y-30988095D01*
X28852380Y-31559523D01*
X28852380Y-30940476D01*
X39901904Y-28322380D02*
X39901904Y-27322380D01*
X40140000Y-27322380D01*
X40282857Y-27370000D01*
X40378095Y-27465238D01*
X40425714Y-27560476D01*
X40473333Y-27750952D01*
X40473333Y-27893809D01*
X40425714Y-28084285D01*
X40378095Y-28179523D01*
X40282857Y-28274761D01*
X40140000Y-28322380D01*
X39901904Y-28322380D01*
X40854285Y-27417619D02*
X40901904Y-27370000D01*
X40997142Y-27322380D01*
X41235238Y-27322380D01*
X41330476Y-27370000D01*
X41378095Y-27417619D01*
X41425714Y-27512857D01*
X41425714Y-27608095D01*
X41378095Y-27750952D01*
X40806666Y-28322380D01*
X41425714Y-28322380D01*
X45458095Y-27952380D02*
X45458095Y-26952380D01*
X46029523Y-27952380D02*
X45600952Y-27380952D01*
X46029523Y-26952380D02*
X45458095Y-27523809D01*
X40473333Y-32107142D02*
X40425714Y-32154761D01*
X40282857Y-32202380D01*
X40187619Y-32202380D01*
X40044761Y-32154761D01*
X39949523Y-32059523D01*
X39901904Y-31964285D01*
X39854285Y-31773809D01*
X39854285Y-31630952D01*
X39901904Y-31440476D01*
X39949523Y-31345238D01*
X40044761Y-31250000D01*
X40187619Y-31202380D01*
X40282857Y-31202380D01*
X40425714Y-31250000D01*
X40473333Y-31297619D01*
X40854285Y-31297619D02*
X40901904Y-31250000D01*
X40997142Y-31202380D01*
X41235238Y-31202380D01*
X41330476Y-31250000D01*
X41378095Y-31297619D01*
X41425714Y-31392857D01*
X41425714Y-31488095D01*
X41378095Y-31630952D01*
X40806666Y-32202380D01*
X41425714Y-32202380D01*
X64012380Y-37163333D02*
X64726666Y-37163333D01*
X64869523Y-37210952D01*
X64964761Y-37306190D01*
X65012380Y-37449047D01*
X65012380Y-37544285D01*
X64107619Y-36734761D02*
X64060000Y-36687142D01*
X64012380Y-36591904D01*
X64012380Y-36353809D01*
X64060000Y-36258571D01*
X64107619Y-36210952D01*
X64202857Y-36163333D01*
X64298095Y-36163333D01*
X64440952Y-36210952D01*
X65012380Y-36782380D01*
X65012380Y-36163333D01*
X37338095Y-31412380D02*
X37338095Y-32221904D01*
X37385714Y-32317142D01*
X37433333Y-32364761D01*
X37528571Y-32412380D01*
X37719047Y-32412380D01*
X37814285Y-32364761D01*
X37861904Y-32317142D01*
X37909523Y-32221904D01*
X37909523Y-31412380D01*
X38909523Y-32412380D02*
X38338095Y-32412380D01*
X38623809Y-32412380D02*
X38623809Y-31412380D01*
X38528571Y-31555238D01*
X38433333Y-31650476D01*
X38338095Y-31698095D01*
X50736666Y-24744761D02*
X50879523Y-24792380D01*
X51117619Y-24792380D01*
X51212857Y-24744761D01*
X51260476Y-24697142D01*
X51308095Y-24601904D01*
X51308095Y-24506666D01*
X51260476Y-24411428D01*
X51212857Y-24363809D01*
X51117619Y-24316190D01*
X50927142Y-24268571D01*
X50831904Y-24220952D01*
X50784285Y-24173333D01*
X50736666Y-24078095D01*
X50736666Y-23982857D01*
X50784285Y-23887619D01*
X50831904Y-23840000D01*
X50927142Y-23792380D01*
X51165238Y-23792380D01*
X51308095Y-23840000D01*
X51641428Y-23792380D02*
X51879523Y-24792380D01*
X52070000Y-24078095D01*
X52260476Y-24792380D01*
X52498571Y-23792380D01*
X53403333Y-24792380D02*
X52831904Y-24792380D01*
X53117619Y-24792380D02*
X53117619Y-23792380D01*
X53022380Y-23935238D01*
X52927142Y-24030476D01*
X52831904Y-24078095D01*
X51903333Y-44902380D02*
X51570000Y-44426190D01*
X51331904Y-44902380D02*
X51331904Y-43902380D01*
X51712857Y-43902380D01*
X51808095Y-43950000D01*
X51855714Y-43997619D01*
X51903333Y-44092857D01*
X51903333Y-44235714D01*
X51855714Y-44330952D01*
X51808095Y-44378571D01*
X51712857Y-44426190D01*
X51331904Y-44426190D01*
X52236666Y-43902380D02*
X52855714Y-43902380D01*
X52522380Y-44283333D01*
X52665238Y-44283333D01*
X52760476Y-44330952D01*
X52808095Y-44378571D01*
X52855714Y-44473809D01*
X52855714Y-44711904D01*
X52808095Y-44807142D01*
X52760476Y-44854761D01*
X52665238Y-44902380D01*
X52379523Y-44902380D01*
X52284285Y-44854761D01*
X52236666Y-44807142D01*
X51903333Y-39822380D02*
X51570000Y-39346190D01*
X51331904Y-39822380D02*
X51331904Y-38822380D01*
X51712857Y-38822380D01*
X51808095Y-38870000D01*
X51855714Y-38917619D01*
X51903333Y-39012857D01*
X51903333Y-39155714D01*
X51855714Y-39250952D01*
X51808095Y-39298571D01*
X51712857Y-39346190D01*
X51331904Y-39346190D01*
X52855714Y-39822380D02*
X52284285Y-39822380D01*
X52570000Y-39822380D02*
X52570000Y-38822380D01*
X52474761Y-38965238D01*
X52379523Y-39060476D01*
X52284285Y-39108095D01*
X66642380Y-29948095D02*
X65642380Y-29948095D01*
X65642380Y-29710000D01*
X65690000Y-29567142D01*
X65785238Y-29471904D01*
X65880476Y-29424285D01*
X66070952Y-29376666D01*
X66213809Y-29376666D01*
X66404285Y-29424285D01*
X66499523Y-29471904D01*
X66594761Y-29567142D01*
X66642380Y-29710000D01*
X66642380Y-29948095D01*
X66642380Y-28424285D02*
X66642380Y-28995714D01*
X66642380Y-28710000D02*
X65642380Y-28710000D01*
X65785238Y-28805238D01*
X65880476Y-28900476D01*
X65928095Y-28995714D01*
%LPC*%
D12*
X48260000Y-31750000D03*
D13*
X55880000Y-31750000D03*
D14*
X30480000Y-36830000D03*
D15*
X30480000Y-34290000D03*
D13*
X30480000Y-30440000D03*
D16*
X30480000Y-27940000D03*
D17*
X24130000Y-34290000D03*
X24130000Y-31750000D03*
D18*
X24130000Y-29210000D03*
D19*
X22860000Y-43180000D03*
X63500000Y-43180000D03*
X63500000Y-22860000D03*
X22860000Y-22860000D03*
D20*
X35560000Y-25400000D03*
D21*
X45720000Y-25400000D03*
D13*
X36910000Y-29210000D03*
X41910000Y-29210000D03*
D14*
X62230000Y-38100000D03*
D15*
X62230000Y-35560000D03*
D12*
X41910000Y-34290000D03*
X34290000Y-41910000D03*
X41910000Y-36830000D03*
X34290000Y-39370000D03*
X41910000Y-39370000D03*
X34290000Y-36830000D03*
X41910000Y-41910000D03*
D16*
X34290000Y-34290000D03*
D14*
X53340000Y-26670000D03*
D15*
X50800000Y-26670000D03*
D12*
X48260000Y-41910000D03*
D13*
X55880000Y-41910000D03*
D12*
X48260000Y-36830000D03*
D13*
X55880000Y-36830000D03*
D22*
X62230000Y-30480000D03*
D23*
X62230000Y-27940000D03*
M02*
