M48
; DRILL file {KiCad (5.1.9)-1} date 04/22/21 01:38:16
; FORMAT={-:-/ absolute / metric / decimal}
; #@! TF.CreationDate,2021-04-22T01:38:16+01:00
; #@! TF.GenerationSoftware,Kicad,Pcbnew,(5.1.9)-1
; #@! TF.FileFunction,Plated,1,2,PTH
FMAT,2
METRIC
T1C0.800
T2C0.900
T3C1.000
T4C1.100
%
G90
G05
T1
X30.48Y-27.94
X30.48Y-30.44
X34.29Y-34.29
X34.29Y-36.83
X34.29Y-39.37
X34.29Y-41.91
X36.91Y-29.21
X41.91Y-29.21
X41.91Y-34.29
X41.91Y-36.83
X41.91Y-39.37
X41.91Y-41.91
X48.26Y-31.75
X48.26Y-36.83
X48.26Y-41.91
X55.88Y-31.75
X55.88Y-36.83
X55.88Y-41.91
T2
X62.23Y-27.94
X62.23Y-30.48
T3
X30.48Y-34.29
X30.48Y-36.83
X50.8Y-26.67
X53.34Y-26.67
X62.23Y-35.56
X62.23Y-38.1
T4
X24.13Y-29.21
X24.13Y-31.75
X24.13Y-34.29
X35.56Y-25.4
X45.72Y-25.4
T0
M30
