G04 #@! TF.GenerationSoftware,KiCad,Pcbnew,(5.1.9)-1*
G04 #@! TF.CreationDate,2021-04-22T01:37:42+01:00*
G04 #@! TF.ProjectId,remote,72656d6f-7465-42e6-9b69-6361645f7063,rev?*
G04 #@! TF.SameCoordinates,Original*
G04 #@! TF.FileFunction,Copper,L2,Bot*
G04 #@! TF.FilePolarity,Positive*
%FSLAX46Y46*%
G04 Gerber Fmt 4.6, Leading zero omitted, Abs format (unit mm)*
G04 Created by KiCad (PCBNEW (5.1.9)-1) date 2021-04-22 01:37:42*
%MOMM*%
%LPD*%
G01*
G04 APERTURE LIST*
G04 #@! TA.AperFunction,ComponentPad*
%ADD10O,1.600000X1.600000*%
G04 #@! TD*
G04 #@! TA.AperFunction,ComponentPad*
%ADD11C,1.600000*%
G04 #@! TD*
G04 #@! TA.AperFunction,ComponentPad*
%ADD12O,1.700000X1.700000*%
G04 #@! TD*
G04 #@! TA.AperFunction,ComponentPad*
%ADD13R,1.700000X1.700000*%
G04 #@! TD*
G04 #@! TA.AperFunction,ComponentPad*
%ADD14R,1.600000X1.600000*%
G04 #@! TD*
G04 #@! TA.AperFunction,ComponentPad*
%ADD15O,2.000000X1.905000*%
G04 #@! TD*
G04 #@! TA.AperFunction,ComponentPad*
%ADD16R,2.000000X1.905000*%
G04 #@! TD*
G04 #@! TA.AperFunction,ComponentPad*
%ADD17O,2.200000X2.200000*%
G04 #@! TD*
G04 #@! TA.AperFunction,ComponentPad*
%ADD18R,2.200000X2.200000*%
G04 #@! TD*
G04 #@! TA.AperFunction,ComponentPad*
%ADD19C,1.800000*%
G04 #@! TD*
G04 #@! TA.AperFunction,ComponentPad*
%ADD20R,1.800000X1.800000*%
G04 #@! TD*
G04 #@! TA.AperFunction,Conductor*
%ADD21C,0.250000*%
G04 #@! TD*
G04 #@! TA.AperFunction,Conductor*
%ADD22C,0.254000*%
G04 #@! TD*
G04 #@! TA.AperFunction,Conductor*
%ADD23C,0.100000*%
G04 #@! TD*
G04 APERTURE END LIST*
D10*
X48260000Y-31750000D03*
D11*
X55880000Y-31750000D03*
D12*
X30480000Y-36830000D03*
D13*
X30480000Y-34290000D03*
D11*
X30480000Y-30440000D03*
D14*
X30480000Y-27940000D03*
D15*
X24130000Y-34290000D03*
X24130000Y-31750000D03*
D16*
X24130000Y-29210000D03*
D17*
X35560000Y-25400000D03*
D18*
X45720000Y-25400000D03*
D11*
X36910000Y-29210000D03*
X41910000Y-29210000D03*
D12*
X62230000Y-38100000D03*
D13*
X62230000Y-35560000D03*
D10*
X41910000Y-34290000D03*
X34290000Y-41910000D03*
X41910000Y-36830000D03*
X34290000Y-39370000D03*
X41910000Y-39370000D03*
X34290000Y-36830000D03*
X41910000Y-41910000D03*
D14*
X34290000Y-34290000D03*
D12*
X53340000Y-26670000D03*
D13*
X50800000Y-26670000D03*
D10*
X48260000Y-41910000D03*
D11*
X55880000Y-41910000D03*
D10*
X48260000Y-36830000D03*
D11*
X55880000Y-36830000D03*
D19*
X62230000Y-30480000D03*
D20*
X62230000Y-27940000D03*
D21*
X63405001Y-31655001D02*
X62230000Y-30480000D01*
X63405001Y-36670001D02*
X63405001Y-31655001D01*
X63245002Y-36830000D02*
X63405001Y-36670001D01*
X55880000Y-36830000D02*
X63245002Y-36830000D01*
X59690000Y-38100000D02*
X55880000Y-41910000D01*
X62230000Y-38100000D02*
X59690000Y-38100000D01*
X59690000Y-35560000D02*
X55880000Y-31750000D01*
X62230000Y-35560000D02*
X59690000Y-35560000D01*
X45720000Y-39370000D02*
X41910000Y-39370000D01*
X48260000Y-36830000D02*
X45720000Y-39370000D01*
X48260000Y-41910000D02*
X41910000Y-41910000D01*
X50800000Y-32145002D02*
X50800000Y-26670000D01*
X46115002Y-36830000D02*
X50800000Y-32145002D01*
X41910000Y-36830000D02*
X46115002Y-36830000D01*
X45720000Y-25480000D02*
X45720000Y-25400000D01*
X53085002Y-26670000D02*
X53340000Y-26670000D01*
X51815002Y-25400000D02*
X53085002Y-26670000D01*
X45720000Y-25400000D02*
X51815002Y-25400000D01*
X34210000Y-41830000D02*
X34290000Y-41910000D01*
X29210000Y-29210000D02*
X30480000Y-27940000D01*
X24130000Y-29210000D02*
X29210000Y-29210000D01*
X31605001Y-29065001D02*
X30480000Y-27940000D01*
X31605001Y-33164999D02*
X31605001Y-29065001D01*
X30480000Y-34290000D02*
X31605001Y-33164999D01*
X33020000Y-25400000D02*
X30480000Y-27940000D01*
X35560000Y-25400000D02*
X33020000Y-25400000D01*
X41910000Y-29210000D02*
X41910000Y-34290000D01*
X45720000Y-34290000D02*
X48260000Y-31750000D01*
X41910000Y-34290000D02*
X45720000Y-34290000D01*
X40545001Y-35654999D02*
X41910000Y-34290000D01*
X25494999Y-35654999D02*
X40545001Y-35654999D01*
X24130000Y-34290000D02*
X25494999Y-35654999D01*
D22*
X65380000Y-45060000D02*
X20980000Y-45060000D01*
X20980000Y-43018967D01*
X21225000Y-43018967D01*
X21225000Y-43341033D01*
X21287832Y-43656912D01*
X21411082Y-43954463D01*
X21590013Y-44222252D01*
X21817748Y-44449987D01*
X22085537Y-44628918D01*
X22383088Y-44752168D01*
X22698967Y-44815000D01*
X23021033Y-44815000D01*
X23336912Y-44752168D01*
X23634463Y-44628918D01*
X23902252Y-44449987D01*
X24129987Y-44222252D01*
X24308918Y-43954463D01*
X24432168Y-43656912D01*
X24495000Y-43341033D01*
X24495000Y-43018967D01*
X24432168Y-42703088D01*
X24308918Y-42405537D01*
X24211032Y-42259039D01*
X32898096Y-42259039D01*
X32938754Y-42393087D01*
X33058963Y-42647420D01*
X33226481Y-42873414D01*
X33434869Y-43062385D01*
X33676119Y-43207070D01*
X33940960Y-43301909D01*
X34163000Y-43180624D01*
X34163000Y-42037000D01*
X34417000Y-42037000D01*
X34417000Y-43180624D01*
X34639040Y-43301909D01*
X34903881Y-43207070D01*
X35145131Y-43062385D01*
X35353519Y-42873414D01*
X35521037Y-42647420D01*
X35641246Y-42393087D01*
X35681904Y-42259039D01*
X35559915Y-42037000D01*
X34417000Y-42037000D01*
X34163000Y-42037000D01*
X33020085Y-42037000D01*
X32898096Y-42259039D01*
X24211032Y-42259039D01*
X24129987Y-42137748D01*
X23902252Y-41910013D01*
X23634463Y-41731082D01*
X23336912Y-41607832D01*
X23021033Y-41545000D01*
X22698967Y-41545000D01*
X22383088Y-41607832D01*
X22085537Y-41731082D01*
X21817748Y-41910013D01*
X21590013Y-42137748D01*
X21411082Y-42405537D01*
X21287832Y-42703088D01*
X21225000Y-43018967D01*
X20980000Y-43018967D01*
X20980000Y-37186891D01*
X29038519Y-37186891D01*
X29135843Y-37461252D01*
X29284822Y-37711355D01*
X29479731Y-37927588D01*
X29713080Y-38101641D01*
X29975901Y-38226825D01*
X30123110Y-38271476D01*
X30353000Y-38150155D01*
X30353000Y-36957000D01*
X30607000Y-36957000D01*
X30607000Y-38150155D01*
X30836890Y-38271476D01*
X30984099Y-38226825D01*
X31246920Y-38101641D01*
X31480269Y-37927588D01*
X31675178Y-37711355D01*
X31824157Y-37461252D01*
X31921481Y-37186891D01*
X31800814Y-36957000D01*
X30607000Y-36957000D01*
X30353000Y-36957000D01*
X29159186Y-36957000D01*
X29038519Y-37186891D01*
X20980000Y-37186891D01*
X20980000Y-34290000D01*
X22487319Y-34290000D01*
X22517970Y-34601204D01*
X22608745Y-34900449D01*
X22756155Y-35176235D01*
X22954537Y-35417963D01*
X23196265Y-35616345D01*
X23472051Y-35763755D01*
X23771296Y-35854530D01*
X24004514Y-35877500D01*
X24255486Y-35877500D01*
X24488704Y-35854530D01*
X24589233Y-35824035D01*
X24931200Y-36166002D01*
X24954998Y-36195000D01*
X24983996Y-36218798D01*
X25070722Y-36289973D01*
X25202752Y-36360545D01*
X25346013Y-36404002D01*
X25457666Y-36414999D01*
X25457675Y-36414999D01*
X25494998Y-36418675D01*
X25532321Y-36414999D01*
X29059132Y-36414999D01*
X29038519Y-36473109D01*
X29159186Y-36703000D01*
X30353000Y-36703000D01*
X30353000Y-36683000D01*
X30607000Y-36683000D01*
X30607000Y-36703000D01*
X31800814Y-36703000D01*
X31921481Y-36473109D01*
X31900868Y-36414999D01*
X32909436Y-36414999D01*
X32855000Y-36688665D01*
X32855000Y-36971335D01*
X32910147Y-37248574D01*
X33018320Y-37509727D01*
X33175363Y-37744759D01*
X33375241Y-37944637D01*
X33607759Y-38100000D01*
X33375241Y-38255363D01*
X33175363Y-38455241D01*
X33018320Y-38690273D01*
X32910147Y-38951426D01*
X32855000Y-39228665D01*
X32855000Y-39511335D01*
X32910147Y-39788574D01*
X33018320Y-40049727D01*
X33175363Y-40284759D01*
X33375241Y-40484637D01*
X33610273Y-40641680D01*
X33620865Y-40646067D01*
X33434869Y-40757615D01*
X33226481Y-40946586D01*
X33058963Y-41172580D01*
X32938754Y-41426913D01*
X32898096Y-41560961D01*
X33020085Y-41783000D01*
X34163000Y-41783000D01*
X34163000Y-41763000D01*
X34417000Y-41763000D01*
X34417000Y-41783000D01*
X35559915Y-41783000D01*
X35681904Y-41560961D01*
X35641246Y-41426913D01*
X35521037Y-41172580D01*
X35353519Y-40946586D01*
X35145131Y-40757615D01*
X34959135Y-40646067D01*
X34969727Y-40641680D01*
X35204759Y-40484637D01*
X35404637Y-40284759D01*
X35561680Y-40049727D01*
X35669853Y-39788574D01*
X35725000Y-39511335D01*
X35725000Y-39228665D01*
X35669853Y-38951426D01*
X35561680Y-38690273D01*
X35404637Y-38455241D01*
X35204759Y-38255363D01*
X34972241Y-38100000D01*
X35204759Y-37944637D01*
X35404637Y-37744759D01*
X35561680Y-37509727D01*
X35669853Y-37248574D01*
X35725000Y-36971335D01*
X35725000Y-36688665D01*
X35670564Y-36414999D01*
X40507679Y-36414999D01*
X40529018Y-36417101D01*
X40475000Y-36688665D01*
X40475000Y-36971335D01*
X40530147Y-37248574D01*
X40638320Y-37509727D01*
X40795363Y-37744759D01*
X40995241Y-37944637D01*
X41227759Y-38100000D01*
X40995241Y-38255363D01*
X40795363Y-38455241D01*
X40638320Y-38690273D01*
X40530147Y-38951426D01*
X40475000Y-39228665D01*
X40475000Y-39511335D01*
X40530147Y-39788574D01*
X40638320Y-40049727D01*
X40795363Y-40284759D01*
X40995241Y-40484637D01*
X41227759Y-40640000D01*
X40995241Y-40795363D01*
X40795363Y-40995241D01*
X40638320Y-41230273D01*
X40530147Y-41491426D01*
X40475000Y-41768665D01*
X40475000Y-42051335D01*
X40530147Y-42328574D01*
X40638320Y-42589727D01*
X40795363Y-42824759D01*
X40995241Y-43024637D01*
X41230273Y-43181680D01*
X41491426Y-43289853D01*
X41768665Y-43345000D01*
X42051335Y-43345000D01*
X42328574Y-43289853D01*
X42589727Y-43181680D01*
X42824759Y-43024637D01*
X43024637Y-42824759D01*
X43128043Y-42670000D01*
X47041957Y-42670000D01*
X47145363Y-42824759D01*
X47345241Y-43024637D01*
X47580273Y-43181680D01*
X47841426Y-43289853D01*
X48118665Y-43345000D01*
X48401335Y-43345000D01*
X48678574Y-43289853D01*
X48939727Y-43181680D01*
X49174759Y-43024637D01*
X49374637Y-42824759D01*
X49531680Y-42589727D01*
X49639853Y-42328574D01*
X49695000Y-42051335D01*
X49695000Y-41768665D01*
X49639853Y-41491426D01*
X49531680Y-41230273D01*
X49374637Y-40995241D01*
X49174759Y-40795363D01*
X48939727Y-40638320D01*
X48678574Y-40530147D01*
X48401335Y-40475000D01*
X48118665Y-40475000D01*
X47841426Y-40530147D01*
X47580273Y-40638320D01*
X47345241Y-40795363D01*
X47145363Y-40995241D01*
X47041957Y-41150000D01*
X43128043Y-41150000D01*
X43024637Y-40995241D01*
X42824759Y-40795363D01*
X42592241Y-40640000D01*
X42824759Y-40484637D01*
X43024637Y-40284759D01*
X43128043Y-40130000D01*
X45682678Y-40130000D01*
X45720000Y-40133676D01*
X45757322Y-40130000D01*
X45757333Y-40130000D01*
X45868986Y-40119003D01*
X46012247Y-40075546D01*
X46144276Y-40004974D01*
X46260001Y-39910001D01*
X46283804Y-39880997D01*
X47936114Y-38228688D01*
X48118665Y-38265000D01*
X48401335Y-38265000D01*
X48678574Y-38209853D01*
X48939727Y-38101680D01*
X49174759Y-37944637D01*
X49374637Y-37744759D01*
X49531680Y-37509727D01*
X49639853Y-37248574D01*
X49695000Y-36971335D01*
X49695000Y-36688665D01*
X49639853Y-36411426D01*
X49531680Y-36150273D01*
X49374637Y-35915241D01*
X49174759Y-35715363D01*
X48939727Y-35558320D01*
X48678574Y-35450147D01*
X48587727Y-35432076D01*
X51311004Y-32708800D01*
X51340001Y-32685003D01*
X51434974Y-32569278D01*
X51505546Y-32437249D01*
X51549003Y-32293988D01*
X51560000Y-32182335D01*
X51560000Y-32182327D01*
X51563676Y-32145002D01*
X51560000Y-32107677D01*
X51560000Y-31608665D01*
X54445000Y-31608665D01*
X54445000Y-31891335D01*
X54500147Y-32168574D01*
X54608320Y-32429727D01*
X54765363Y-32664759D01*
X54965241Y-32864637D01*
X55200273Y-33021680D01*
X55461426Y-33129853D01*
X55738665Y-33185000D01*
X56021335Y-33185000D01*
X56203887Y-33148688D01*
X59125198Y-36070000D01*
X57098043Y-36070000D01*
X56994637Y-35915241D01*
X56794759Y-35715363D01*
X56559727Y-35558320D01*
X56298574Y-35450147D01*
X56021335Y-35395000D01*
X55738665Y-35395000D01*
X55461426Y-35450147D01*
X55200273Y-35558320D01*
X54965241Y-35715363D01*
X54765363Y-35915241D01*
X54608320Y-36150273D01*
X54500147Y-36411426D01*
X54445000Y-36688665D01*
X54445000Y-36971335D01*
X54500147Y-37248574D01*
X54608320Y-37509727D01*
X54765363Y-37744759D01*
X54965241Y-37944637D01*
X55200273Y-38101680D01*
X55461426Y-38209853D01*
X55738665Y-38265000D01*
X56021335Y-38265000D01*
X56298574Y-38209853D01*
X56559727Y-38101680D01*
X56794759Y-37944637D01*
X56994637Y-37744759D01*
X57098043Y-37590000D01*
X59125198Y-37590000D01*
X56203887Y-40511312D01*
X56021335Y-40475000D01*
X55738665Y-40475000D01*
X55461426Y-40530147D01*
X55200273Y-40638320D01*
X54965241Y-40795363D01*
X54765363Y-40995241D01*
X54608320Y-41230273D01*
X54500147Y-41491426D01*
X54445000Y-41768665D01*
X54445000Y-42051335D01*
X54500147Y-42328574D01*
X54608320Y-42589727D01*
X54765363Y-42824759D01*
X54965241Y-43024637D01*
X55200273Y-43181680D01*
X55461426Y-43289853D01*
X55738665Y-43345000D01*
X56021335Y-43345000D01*
X56298574Y-43289853D01*
X56559727Y-43181680D01*
X56794759Y-43024637D01*
X56800429Y-43018967D01*
X61865000Y-43018967D01*
X61865000Y-43341033D01*
X61927832Y-43656912D01*
X62051082Y-43954463D01*
X62230013Y-44222252D01*
X62457748Y-44449987D01*
X62725537Y-44628918D01*
X63023088Y-44752168D01*
X63338967Y-44815000D01*
X63661033Y-44815000D01*
X63976912Y-44752168D01*
X64274463Y-44628918D01*
X64542252Y-44449987D01*
X64769987Y-44222252D01*
X64948918Y-43954463D01*
X65072168Y-43656912D01*
X65135000Y-43341033D01*
X65135000Y-43018967D01*
X65072168Y-42703088D01*
X64948918Y-42405537D01*
X64769987Y-42137748D01*
X64542252Y-41910013D01*
X64274463Y-41731082D01*
X63976912Y-41607832D01*
X63661033Y-41545000D01*
X63338967Y-41545000D01*
X63023088Y-41607832D01*
X62725537Y-41731082D01*
X62457748Y-41910013D01*
X62230013Y-42137748D01*
X62051082Y-42405537D01*
X61927832Y-42703088D01*
X61865000Y-43018967D01*
X56800429Y-43018967D01*
X56994637Y-42824759D01*
X57151680Y-42589727D01*
X57259853Y-42328574D01*
X57315000Y-42051335D01*
X57315000Y-41768665D01*
X57278688Y-41586113D01*
X60004802Y-38860000D01*
X60951822Y-38860000D01*
X61076525Y-39046632D01*
X61283368Y-39253475D01*
X61526589Y-39415990D01*
X61796842Y-39527932D01*
X62083740Y-39585000D01*
X62376260Y-39585000D01*
X62663158Y-39527932D01*
X62933411Y-39415990D01*
X63176632Y-39253475D01*
X63383475Y-39046632D01*
X63545990Y-38803411D01*
X63657932Y-38533158D01*
X63715000Y-38246260D01*
X63715000Y-37953740D01*
X63657932Y-37666842D01*
X63591530Y-37506532D01*
X63669278Y-37464974D01*
X63785003Y-37370001D01*
X63808806Y-37340997D01*
X63915999Y-37233804D01*
X63945002Y-37210002D01*
X64039975Y-37094277D01*
X64110547Y-36962248D01*
X64154004Y-36818987D01*
X64165001Y-36707334D01*
X64165001Y-36707326D01*
X64168677Y-36670001D01*
X64165001Y-36632676D01*
X64165001Y-31692323D01*
X64168677Y-31655000D01*
X64165001Y-31617677D01*
X64165001Y-31617668D01*
X64154004Y-31506015D01*
X64110547Y-31362754D01*
X64039975Y-31230725D01*
X63945002Y-31115000D01*
X63916004Y-31091202D01*
X63713731Y-30888930D01*
X63765000Y-30631184D01*
X63765000Y-30328816D01*
X63706011Y-30032257D01*
X63590299Y-29752905D01*
X63422312Y-29501495D01*
X63355873Y-29435056D01*
X63374180Y-29429502D01*
X63484494Y-29370537D01*
X63581185Y-29291185D01*
X63660537Y-29194494D01*
X63719502Y-29084180D01*
X63755812Y-28964482D01*
X63768072Y-28840000D01*
X63765000Y-28225750D01*
X63606250Y-28067000D01*
X62357000Y-28067000D01*
X62357000Y-28087000D01*
X62103000Y-28087000D01*
X62103000Y-28067000D01*
X60853750Y-28067000D01*
X60695000Y-28225750D01*
X60691928Y-28840000D01*
X60704188Y-28964482D01*
X60740498Y-29084180D01*
X60799463Y-29194494D01*
X60878815Y-29291185D01*
X60975506Y-29370537D01*
X61085820Y-29429502D01*
X61104127Y-29435056D01*
X61037688Y-29501495D01*
X60869701Y-29752905D01*
X60753989Y-30032257D01*
X60695000Y-30328816D01*
X60695000Y-30631184D01*
X60753989Y-30927743D01*
X60869701Y-31207095D01*
X61037688Y-31458505D01*
X61251495Y-31672312D01*
X61502905Y-31840299D01*
X61782257Y-31956011D01*
X62078816Y-32015000D01*
X62381184Y-32015000D01*
X62638930Y-31963731D01*
X62645002Y-31969804D01*
X62645002Y-34071928D01*
X61380000Y-34071928D01*
X61255518Y-34084188D01*
X61135820Y-34120498D01*
X61025506Y-34179463D01*
X60928815Y-34258815D01*
X60849463Y-34355506D01*
X60790498Y-34465820D01*
X60754188Y-34585518D01*
X60741928Y-34710000D01*
X60741928Y-34800000D01*
X60004802Y-34800000D01*
X57278688Y-32073887D01*
X57315000Y-31891335D01*
X57315000Y-31608665D01*
X57259853Y-31331426D01*
X57151680Y-31070273D01*
X56994637Y-30835241D01*
X56794759Y-30635363D01*
X56559727Y-30478320D01*
X56298574Y-30370147D01*
X56021335Y-30315000D01*
X55738665Y-30315000D01*
X55461426Y-30370147D01*
X55200273Y-30478320D01*
X54965241Y-30635363D01*
X54765363Y-30835241D01*
X54608320Y-31070273D01*
X54500147Y-31331426D01*
X54445000Y-31608665D01*
X51560000Y-31608665D01*
X51560000Y-28158072D01*
X51650000Y-28158072D01*
X51774482Y-28145812D01*
X51894180Y-28109502D01*
X52004494Y-28050537D01*
X52101185Y-27971185D01*
X52180537Y-27874494D01*
X52239502Y-27764180D01*
X52262498Y-27688374D01*
X52458645Y-27865178D01*
X52708748Y-28014157D01*
X52983109Y-28111481D01*
X53213000Y-27990814D01*
X53213000Y-26797000D01*
X53467000Y-26797000D01*
X53467000Y-27990814D01*
X53696891Y-28111481D01*
X53971252Y-28014157D01*
X54221355Y-27865178D01*
X54437588Y-27670269D01*
X54611641Y-27436920D01*
X54736825Y-27174099D01*
X54777499Y-27040000D01*
X60691928Y-27040000D01*
X60695000Y-27654250D01*
X60853750Y-27813000D01*
X62103000Y-27813000D01*
X62103000Y-26563750D01*
X62357000Y-26563750D01*
X62357000Y-27813000D01*
X63606250Y-27813000D01*
X63765000Y-27654250D01*
X63768072Y-27040000D01*
X63755812Y-26915518D01*
X63719502Y-26795820D01*
X63660537Y-26685506D01*
X63581185Y-26588815D01*
X63484494Y-26509463D01*
X63374180Y-26450498D01*
X63254482Y-26414188D01*
X63130000Y-26401928D01*
X62515750Y-26405000D01*
X62357000Y-26563750D01*
X62103000Y-26563750D01*
X61944250Y-26405000D01*
X61330000Y-26401928D01*
X61205518Y-26414188D01*
X61085820Y-26450498D01*
X60975506Y-26509463D01*
X60878815Y-26588815D01*
X60799463Y-26685506D01*
X60740498Y-26795820D01*
X60704188Y-26915518D01*
X60691928Y-27040000D01*
X54777499Y-27040000D01*
X54781476Y-27026890D01*
X54660155Y-26797000D01*
X53467000Y-26797000D01*
X53213000Y-26797000D01*
X53193000Y-26797000D01*
X53193000Y-26543000D01*
X53213000Y-26543000D01*
X53213000Y-25349186D01*
X53467000Y-25349186D01*
X53467000Y-26543000D01*
X54660155Y-26543000D01*
X54781476Y-26313110D01*
X54736825Y-26165901D01*
X54611641Y-25903080D01*
X54437588Y-25669731D01*
X54221355Y-25474822D01*
X53971252Y-25325843D01*
X53696891Y-25228519D01*
X53467000Y-25349186D01*
X53213000Y-25349186D01*
X52983109Y-25228519D01*
X52708748Y-25325843D01*
X52458645Y-25474822D01*
X52262498Y-25651626D01*
X52239502Y-25575820D01*
X52180537Y-25465506D01*
X52101185Y-25368815D01*
X52004494Y-25289463D01*
X51894180Y-25230498D01*
X51774482Y-25194188D01*
X51650000Y-25181928D01*
X49950000Y-25181928D01*
X49825518Y-25194188D01*
X49705820Y-25230498D01*
X49595506Y-25289463D01*
X49498815Y-25368815D01*
X49419463Y-25465506D01*
X49360498Y-25575820D01*
X49324188Y-25695518D01*
X49311928Y-25820000D01*
X49311928Y-27520000D01*
X49324188Y-27644482D01*
X49360498Y-27764180D01*
X49419463Y-27874494D01*
X49498815Y-27971185D01*
X49595506Y-28050537D01*
X49705820Y-28109502D01*
X49825518Y-28145812D01*
X49950000Y-28158072D01*
X50040001Y-28158072D01*
X50040000Y-31830200D01*
X49596173Y-32274027D01*
X49639853Y-32168574D01*
X49695000Y-31891335D01*
X49695000Y-31608665D01*
X49639853Y-31331426D01*
X49531680Y-31070273D01*
X49374637Y-30835241D01*
X49174759Y-30635363D01*
X48939727Y-30478320D01*
X48678574Y-30370147D01*
X48401335Y-30315000D01*
X48118665Y-30315000D01*
X47841426Y-30370147D01*
X47580273Y-30478320D01*
X47345241Y-30635363D01*
X47145363Y-30835241D01*
X46988320Y-31070273D01*
X46880147Y-31331426D01*
X46825000Y-31608665D01*
X46825000Y-31891335D01*
X46861312Y-32073886D01*
X45405199Y-33530000D01*
X43128043Y-33530000D01*
X43024637Y-33375241D01*
X42824759Y-33175363D01*
X42670000Y-33071957D01*
X42670000Y-30428043D01*
X42824759Y-30324637D01*
X43024637Y-30124759D01*
X43181680Y-29889727D01*
X43289853Y-29628574D01*
X43345000Y-29351335D01*
X43345000Y-29068665D01*
X43289853Y-28791426D01*
X43181680Y-28530273D01*
X43024637Y-28295241D01*
X42824759Y-28095363D01*
X42589727Y-27938320D01*
X42328574Y-27830147D01*
X42051335Y-27775000D01*
X41768665Y-27775000D01*
X41491426Y-27830147D01*
X41230273Y-27938320D01*
X40995241Y-28095363D01*
X40795363Y-28295241D01*
X40638320Y-28530273D01*
X40530147Y-28791426D01*
X40475000Y-29068665D01*
X40475000Y-29351335D01*
X40530147Y-29628574D01*
X40638320Y-29889727D01*
X40795363Y-30124759D01*
X40995241Y-30324637D01*
X41150000Y-30428044D01*
X41150001Y-33071956D01*
X40995241Y-33175363D01*
X40795363Y-33375241D01*
X40638320Y-33610273D01*
X40530147Y-33871426D01*
X40475000Y-34148665D01*
X40475000Y-34431335D01*
X40511312Y-34613886D01*
X40230200Y-34894999D01*
X35728072Y-34894999D01*
X35728072Y-33490000D01*
X35715812Y-33365518D01*
X35679502Y-33245820D01*
X35620537Y-33135506D01*
X35541185Y-33038815D01*
X35444494Y-32959463D01*
X35334180Y-32900498D01*
X35214482Y-32864188D01*
X35090000Y-32851928D01*
X33490000Y-32851928D01*
X33365518Y-32864188D01*
X33245820Y-32900498D01*
X33135506Y-32959463D01*
X33038815Y-33038815D01*
X32959463Y-33135506D01*
X32900498Y-33245820D01*
X32864188Y-33365518D01*
X32851928Y-33490000D01*
X32851928Y-34894999D01*
X31968072Y-34894999D01*
X31968072Y-33876730D01*
X32116005Y-33728797D01*
X32145002Y-33705000D01*
X32239975Y-33589275D01*
X32310547Y-33457246D01*
X32354004Y-33313985D01*
X32365001Y-33202332D01*
X32365001Y-33202324D01*
X32368677Y-33164999D01*
X32365001Y-33127674D01*
X32365001Y-30202702D01*
X36096903Y-30202702D01*
X36168486Y-30446671D01*
X36423996Y-30567571D01*
X36698184Y-30636300D01*
X36980512Y-30650217D01*
X37260130Y-30608787D01*
X37526292Y-30513603D01*
X37651514Y-30446671D01*
X37723097Y-30202702D01*
X36910000Y-29389605D01*
X36096903Y-30202702D01*
X32365001Y-30202702D01*
X32365001Y-29280512D01*
X35469783Y-29280512D01*
X35511213Y-29560130D01*
X35606397Y-29826292D01*
X35673329Y-29951514D01*
X35917298Y-30023097D01*
X36730395Y-29210000D01*
X37089605Y-29210000D01*
X37902702Y-30023097D01*
X38146671Y-29951514D01*
X38267571Y-29696004D01*
X38336300Y-29421816D01*
X38350217Y-29139488D01*
X38308787Y-28859870D01*
X38213603Y-28593708D01*
X38146671Y-28468486D01*
X37902702Y-28396903D01*
X37089605Y-29210000D01*
X36730395Y-29210000D01*
X35917298Y-28396903D01*
X35673329Y-28468486D01*
X35552429Y-28723996D01*
X35483700Y-28998184D01*
X35469783Y-29280512D01*
X32365001Y-29280512D01*
X32365001Y-29102326D01*
X32368677Y-29065001D01*
X32365001Y-29027676D01*
X32365001Y-29027668D01*
X32354004Y-28916015D01*
X32310547Y-28772754D01*
X32239975Y-28640725D01*
X32145002Y-28525000D01*
X32116004Y-28501202D01*
X31918072Y-28303270D01*
X31918072Y-28217298D01*
X36096903Y-28217298D01*
X36910000Y-29030395D01*
X37723097Y-28217298D01*
X37651514Y-27973329D01*
X37396004Y-27852429D01*
X37121816Y-27783700D01*
X36839488Y-27769783D01*
X36559870Y-27811213D01*
X36293708Y-27906397D01*
X36168486Y-27973329D01*
X36096903Y-28217298D01*
X31918072Y-28217298D01*
X31918072Y-27576730D01*
X33334803Y-26160000D01*
X33996852Y-26160000D01*
X34022463Y-26221831D01*
X34212337Y-26505998D01*
X34454002Y-26747663D01*
X34738169Y-26937537D01*
X35053919Y-27068325D01*
X35389117Y-27135000D01*
X35730883Y-27135000D01*
X36066081Y-27068325D01*
X36381831Y-26937537D01*
X36665998Y-26747663D01*
X36907663Y-26505998D01*
X36911670Y-26500000D01*
X43981928Y-26500000D01*
X43994188Y-26624482D01*
X44030498Y-26744180D01*
X44089463Y-26854494D01*
X44168815Y-26951185D01*
X44265506Y-27030537D01*
X44375820Y-27089502D01*
X44495518Y-27125812D01*
X44620000Y-27138072D01*
X45434250Y-27135000D01*
X45593000Y-26976250D01*
X45593000Y-25527000D01*
X45847000Y-25527000D01*
X45847000Y-26976250D01*
X46005750Y-27135000D01*
X46820000Y-27138072D01*
X46944482Y-27125812D01*
X47064180Y-27089502D01*
X47174494Y-27030537D01*
X47271185Y-26951185D01*
X47350537Y-26854494D01*
X47409502Y-26744180D01*
X47445812Y-26624482D01*
X47458072Y-26500000D01*
X47455000Y-25685750D01*
X47296250Y-25527000D01*
X45847000Y-25527000D01*
X45593000Y-25527000D01*
X44143750Y-25527000D01*
X43985000Y-25685750D01*
X43981928Y-26500000D01*
X36911670Y-26500000D01*
X37097537Y-26221831D01*
X37228325Y-25906081D01*
X37295000Y-25570883D01*
X37295000Y-25229117D01*
X37228325Y-24893919D01*
X37097537Y-24578169D01*
X36911671Y-24300000D01*
X43981928Y-24300000D01*
X43985000Y-25114250D01*
X44143750Y-25273000D01*
X45593000Y-25273000D01*
X45593000Y-23823750D01*
X45847000Y-23823750D01*
X45847000Y-25273000D01*
X47296250Y-25273000D01*
X47455000Y-25114250D01*
X47458072Y-24300000D01*
X47445812Y-24175518D01*
X47409502Y-24055820D01*
X47350537Y-23945506D01*
X47271185Y-23848815D01*
X47174494Y-23769463D01*
X47064180Y-23710498D01*
X46944482Y-23674188D01*
X46820000Y-23661928D01*
X46005750Y-23665000D01*
X45847000Y-23823750D01*
X45593000Y-23823750D01*
X45434250Y-23665000D01*
X44620000Y-23661928D01*
X44495518Y-23674188D01*
X44375820Y-23710498D01*
X44265506Y-23769463D01*
X44168815Y-23848815D01*
X44089463Y-23945506D01*
X44030498Y-24055820D01*
X43994188Y-24175518D01*
X43981928Y-24300000D01*
X36911671Y-24300000D01*
X36907663Y-24294002D01*
X36665998Y-24052337D01*
X36381831Y-23862463D01*
X36066081Y-23731675D01*
X35730883Y-23665000D01*
X35389117Y-23665000D01*
X35053919Y-23731675D01*
X34738169Y-23862463D01*
X34454002Y-24052337D01*
X34212337Y-24294002D01*
X34022463Y-24578169D01*
X33996852Y-24640000D01*
X33057322Y-24640000D01*
X33019999Y-24636324D01*
X32982676Y-24640000D01*
X32982667Y-24640000D01*
X32871014Y-24650997D01*
X32727753Y-24694454D01*
X32595724Y-24765026D01*
X32595722Y-24765027D01*
X32595723Y-24765027D01*
X32508996Y-24836201D01*
X32508992Y-24836205D01*
X32479999Y-24859999D01*
X32456205Y-24888992D01*
X30843270Y-26501928D01*
X29680000Y-26501928D01*
X29555518Y-26514188D01*
X29435820Y-26550498D01*
X29325506Y-26609463D01*
X29228815Y-26688815D01*
X29149463Y-26785506D01*
X29090498Y-26895820D01*
X29054188Y-27015518D01*
X29041928Y-27140000D01*
X29041928Y-28303271D01*
X28895199Y-28450000D01*
X25768072Y-28450000D01*
X25768072Y-28257500D01*
X25755812Y-28133018D01*
X25719502Y-28013320D01*
X25660537Y-27903006D01*
X25581185Y-27806315D01*
X25484494Y-27726963D01*
X25374180Y-27667998D01*
X25254482Y-27631688D01*
X25130000Y-27619428D01*
X23130000Y-27619428D01*
X23005518Y-27631688D01*
X22885820Y-27667998D01*
X22775506Y-27726963D01*
X22678815Y-27806315D01*
X22599463Y-27903006D01*
X22540498Y-28013320D01*
X22504188Y-28133018D01*
X22491928Y-28257500D01*
X22491928Y-30162500D01*
X22504188Y-30286982D01*
X22540498Y-30406680D01*
X22599463Y-30516994D01*
X22678815Y-30613685D01*
X22775506Y-30693037D01*
X22867219Y-30742059D01*
X22754031Y-30883077D01*
X22610429Y-31158906D01*
X22539437Y-31377020D01*
X22659406Y-31623000D01*
X24003000Y-31623000D01*
X24003000Y-31603000D01*
X24257000Y-31603000D01*
X24257000Y-31623000D01*
X25600594Y-31623000D01*
X25720563Y-31377020D01*
X25649571Y-31158906D01*
X25505969Y-30883077D01*
X25392781Y-30742059D01*
X25484494Y-30693037D01*
X25581185Y-30613685D01*
X25660537Y-30516994D01*
X25719502Y-30406680D01*
X25755812Y-30286982D01*
X25768072Y-30162500D01*
X25768072Y-29970000D01*
X29118417Y-29970000D01*
X29053700Y-30228184D01*
X29039783Y-30510512D01*
X29081213Y-30790130D01*
X29176397Y-31056292D01*
X29243329Y-31181514D01*
X29487298Y-31253097D01*
X30300395Y-30440000D01*
X30286253Y-30425858D01*
X30465858Y-30246253D01*
X30480000Y-30260395D01*
X30494143Y-30246253D01*
X30673748Y-30425858D01*
X30659605Y-30440000D01*
X30673748Y-30454143D01*
X30494143Y-30633748D01*
X30480000Y-30619605D01*
X29666903Y-31432702D01*
X29738486Y-31676671D01*
X29993996Y-31797571D01*
X30268184Y-31866300D01*
X30550512Y-31880217D01*
X30830130Y-31838787D01*
X30845001Y-31833469D01*
X30845001Y-32801928D01*
X29630000Y-32801928D01*
X29505518Y-32814188D01*
X29385820Y-32850498D01*
X29275506Y-32909463D01*
X29178815Y-32988815D01*
X29099463Y-33085506D01*
X29040498Y-33195820D01*
X29004188Y-33315518D01*
X28991928Y-33440000D01*
X28991928Y-34894999D01*
X25809801Y-34894999D01*
X25689424Y-34774622D01*
X25742030Y-34601204D01*
X25772681Y-34290000D01*
X25742030Y-33978796D01*
X25651255Y-33679551D01*
X25503845Y-33403765D01*
X25305463Y-33162037D01*
X25126101Y-33014837D01*
X25311315Y-32859437D01*
X25505969Y-32616923D01*
X25649571Y-32341094D01*
X25720563Y-32122980D01*
X25600594Y-31877000D01*
X24257000Y-31877000D01*
X24257000Y-31897000D01*
X24003000Y-31897000D01*
X24003000Y-31877000D01*
X22659406Y-31877000D01*
X22539437Y-32122980D01*
X22610429Y-32341094D01*
X22754031Y-32616923D01*
X22948685Y-32859437D01*
X23133899Y-33014837D01*
X22954537Y-33162037D01*
X22756155Y-33403765D01*
X22608745Y-33679551D01*
X22517970Y-33978796D01*
X22487319Y-34290000D01*
X20980000Y-34290000D01*
X20980000Y-22698967D01*
X21225000Y-22698967D01*
X21225000Y-23021033D01*
X21287832Y-23336912D01*
X21411082Y-23634463D01*
X21590013Y-23902252D01*
X21817748Y-24129987D01*
X22085537Y-24308918D01*
X22383088Y-24432168D01*
X22698967Y-24495000D01*
X23021033Y-24495000D01*
X23336912Y-24432168D01*
X23634463Y-24308918D01*
X23902252Y-24129987D01*
X24129987Y-23902252D01*
X24308918Y-23634463D01*
X24432168Y-23336912D01*
X24495000Y-23021033D01*
X24495000Y-22698967D01*
X61865000Y-22698967D01*
X61865000Y-23021033D01*
X61927832Y-23336912D01*
X62051082Y-23634463D01*
X62230013Y-23902252D01*
X62457748Y-24129987D01*
X62725537Y-24308918D01*
X63023088Y-24432168D01*
X63338967Y-24495000D01*
X63661033Y-24495000D01*
X63976912Y-24432168D01*
X64274463Y-24308918D01*
X64542252Y-24129987D01*
X64769987Y-23902252D01*
X64948918Y-23634463D01*
X65072168Y-23336912D01*
X65135000Y-23021033D01*
X65135000Y-22698967D01*
X65072168Y-22383088D01*
X64948918Y-22085537D01*
X64769987Y-21817748D01*
X64542252Y-21590013D01*
X64274463Y-21411082D01*
X63976912Y-21287832D01*
X63661033Y-21225000D01*
X63338967Y-21225000D01*
X63023088Y-21287832D01*
X62725537Y-21411082D01*
X62457748Y-21590013D01*
X62230013Y-21817748D01*
X62051082Y-22085537D01*
X61927832Y-22383088D01*
X61865000Y-22698967D01*
X24495000Y-22698967D01*
X24432168Y-22383088D01*
X24308918Y-22085537D01*
X24129987Y-21817748D01*
X23902252Y-21590013D01*
X23634463Y-21411082D01*
X23336912Y-21287832D01*
X23021033Y-21225000D01*
X22698967Y-21225000D01*
X22383088Y-21287832D01*
X22085537Y-21411082D01*
X21817748Y-21590013D01*
X21590013Y-21817748D01*
X21411082Y-22085537D01*
X21287832Y-22383088D01*
X21225000Y-22698967D01*
X20980000Y-22698967D01*
X20980000Y-20980000D01*
X65380001Y-20980000D01*
X65380000Y-45060000D01*
G04 #@! TA.AperFunction,Conductor*
D23*
G36*
X65380000Y-45060000D02*
G01*
X20980000Y-45060000D01*
X20980000Y-43018967D01*
X21225000Y-43018967D01*
X21225000Y-43341033D01*
X21287832Y-43656912D01*
X21411082Y-43954463D01*
X21590013Y-44222252D01*
X21817748Y-44449987D01*
X22085537Y-44628918D01*
X22383088Y-44752168D01*
X22698967Y-44815000D01*
X23021033Y-44815000D01*
X23336912Y-44752168D01*
X23634463Y-44628918D01*
X23902252Y-44449987D01*
X24129987Y-44222252D01*
X24308918Y-43954463D01*
X24432168Y-43656912D01*
X24495000Y-43341033D01*
X24495000Y-43018967D01*
X24432168Y-42703088D01*
X24308918Y-42405537D01*
X24211032Y-42259039D01*
X32898096Y-42259039D01*
X32938754Y-42393087D01*
X33058963Y-42647420D01*
X33226481Y-42873414D01*
X33434869Y-43062385D01*
X33676119Y-43207070D01*
X33940960Y-43301909D01*
X34163000Y-43180624D01*
X34163000Y-42037000D01*
X34417000Y-42037000D01*
X34417000Y-43180624D01*
X34639040Y-43301909D01*
X34903881Y-43207070D01*
X35145131Y-43062385D01*
X35353519Y-42873414D01*
X35521037Y-42647420D01*
X35641246Y-42393087D01*
X35681904Y-42259039D01*
X35559915Y-42037000D01*
X34417000Y-42037000D01*
X34163000Y-42037000D01*
X33020085Y-42037000D01*
X32898096Y-42259039D01*
X24211032Y-42259039D01*
X24129987Y-42137748D01*
X23902252Y-41910013D01*
X23634463Y-41731082D01*
X23336912Y-41607832D01*
X23021033Y-41545000D01*
X22698967Y-41545000D01*
X22383088Y-41607832D01*
X22085537Y-41731082D01*
X21817748Y-41910013D01*
X21590013Y-42137748D01*
X21411082Y-42405537D01*
X21287832Y-42703088D01*
X21225000Y-43018967D01*
X20980000Y-43018967D01*
X20980000Y-37186891D01*
X29038519Y-37186891D01*
X29135843Y-37461252D01*
X29284822Y-37711355D01*
X29479731Y-37927588D01*
X29713080Y-38101641D01*
X29975901Y-38226825D01*
X30123110Y-38271476D01*
X30353000Y-38150155D01*
X30353000Y-36957000D01*
X30607000Y-36957000D01*
X30607000Y-38150155D01*
X30836890Y-38271476D01*
X30984099Y-38226825D01*
X31246920Y-38101641D01*
X31480269Y-37927588D01*
X31675178Y-37711355D01*
X31824157Y-37461252D01*
X31921481Y-37186891D01*
X31800814Y-36957000D01*
X30607000Y-36957000D01*
X30353000Y-36957000D01*
X29159186Y-36957000D01*
X29038519Y-37186891D01*
X20980000Y-37186891D01*
X20980000Y-34290000D01*
X22487319Y-34290000D01*
X22517970Y-34601204D01*
X22608745Y-34900449D01*
X22756155Y-35176235D01*
X22954537Y-35417963D01*
X23196265Y-35616345D01*
X23472051Y-35763755D01*
X23771296Y-35854530D01*
X24004514Y-35877500D01*
X24255486Y-35877500D01*
X24488704Y-35854530D01*
X24589233Y-35824035D01*
X24931200Y-36166002D01*
X24954998Y-36195000D01*
X24983996Y-36218798D01*
X25070722Y-36289973D01*
X25202752Y-36360545D01*
X25346013Y-36404002D01*
X25457666Y-36414999D01*
X25457675Y-36414999D01*
X25494998Y-36418675D01*
X25532321Y-36414999D01*
X29059132Y-36414999D01*
X29038519Y-36473109D01*
X29159186Y-36703000D01*
X30353000Y-36703000D01*
X30353000Y-36683000D01*
X30607000Y-36683000D01*
X30607000Y-36703000D01*
X31800814Y-36703000D01*
X31921481Y-36473109D01*
X31900868Y-36414999D01*
X32909436Y-36414999D01*
X32855000Y-36688665D01*
X32855000Y-36971335D01*
X32910147Y-37248574D01*
X33018320Y-37509727D01*
X33175363Y-37744759D01*
X33375241Y-37944637D01*
X33607759Y-38100000D01*
X33375241Y-38255363D01*
X33175363Y-38455241D01*
X33018320Y-38690273D01*
X32910147Y-38951426D01*
X32855000Y-39228665D01*
X32855000Y-39511335D01*
X32910147Y-39788574D01*
X33018320Y-40049727D01*
X33175363Y-40284759D01*
X33375241Y-40484637D01*
X33610273Y-40641680D01*
X33620865Y-40646067D01*
X33434869Y-40757615D01*
X33226481Y-40946586D01*
X33058963Y-41172580D01*
X32938754Y-41426913D01*
X32898096Y-41560961D01*
X33020085Y-41783000D01*
X34163000Y-41783000D01*
X34163000Y-41763000D01*
X34417000Y-41763000D01*
X34417000Y-41783000D01*
X35559915Y-41783000D01*
X35681904Y-41560961D01*
X35641246Y-41426913D01*
X35521037Y-41172580D01*
X35353519Y-40946586D01*
X35145131Y-40757615D01*
X34959135Y-40646067D01*
X34969727Y-40641680D01*
X35204759Y-40484637D01*
X35404637Y-40284759D01*
X35561680Y-40049727D01*
X35669853Y-39788574D01*
X35725000Y-39511335D01*
X35725000Y-39228665D01*
X35669853Y-38951426D01*
X35561680Y-38690273D01*
X35404637Y-38455241D01*
X35204759Y-38255363D01*
X34972241Y-38100000D01*
X35204759Y-37944637D01*
X35404637Y-37744759D01*
X35561680Y-37509727D01*
X35669853Y-37248574D01*
X35725000Y-36971335D01*
X35725000Y-36688665D01*
X35670564Y-36414999D01*
X40507679Y-36414999D01*
X40529018Y-36417101D01*
X40475000Y-36688665D01*
X40475000Y-36971335D01*
X40530147Y-37248574D01*
X40638320Y-37509727D01*
X40795363Y-37744759D01*
X40995241Y-37944637D01*
X41227759Y-38100000D01*
X40995241Y-38255363D01*
X40795363Y-38455241D01*
X40638320Y-38690273D01*
X40530147Y-38951426D01*
X40475000Y-39228665D01*
X40475000Y-39511335D01*
X40530147Y-39788574D01*
X40638320Y-40049727D01*
X40795363Y-40284759D01*
X40995241Y-40484637D01*
X41227759Y-40640000D01*
X40995241Y-40795363D01*
X40795363Y-40995241D01*
X40638320Y-41230273D01*
X40530147Y-41491426D01*
X40475000Y-41768665D01*
X40475000Y-42051335D01*
X40530147Y-42328574D01*
X40638320Y-42589727D01*
X40795363Y-42824759D01*
X40995241Y-43024637D01*
X41230273Y-43181680D01*
X41491426Y-43289853D01*
X41768665Y-43345000D01*
X42051335Y-43345000D01*
X42328574Y-43289853D01*
X42589727Y-43181680D01*
X42824759Y-43024637D01*
X43024637Y-42824759D01*
X43128043Y-42670000D01*
X47041957Y-42670000D01*
X47145363Y-42824759D01*
X47345241Y-43024637D01*
X47580273Y-43181680D01*
X47841426Y-43289853D01*
X48118665Y-43345000D01*
X48401335Y-43345000D01*
X48678574Y-43289853D01*
X48939727Y-43181680D01*
X49174759Y-43024637D01*
X49374637Y-42824759D01*
X49531680Y-42589727D01*
X49639853Y-42328574D01*
X49695000Y-42051335D01*
X49695000Y-41768665D01*
X49639853Y-41491426D01*
X49531680Y-41230273D01*
X49374637Y-40995241D01*
X49174759Y-40795363D01*
X48939727Y-40638320D01*
X48678574Y-40530147D01*
X48401335Y-40475000D01*
X48118665Y-40475000D01*
X47841426Y-40530147D01*
X47580273Y-40638320D01*
X47345241Y-40795363D01*
X47145363Y-40995241D01*
X47041957Y-41150000D01*
X43128043Y-41150000D01*
X43024637Y-40995241D01*
X42824759Y-40795363D01*
X42592241Y-40640000D01*
X42824759Y-40484637D01*
X43024637Y-40284759D01*
X43128043Y-40130000D01*
X45682678Y-40130000D01*
X45720000Y-40133676D01*
X45757322Y-40130000D01*
X45757333Y-40130000D01*
X45868986Y-40119003D01*
X46012247Y-40075546D01*
X46144276Y-40004974D01*
X46260001Y-39910001D01*
X46283804Y-39880997D01*
X47936114Y-38228688D01*
X48118665Y-38265000D01*
X48401335Y-38265000D01*
X48678574Y-38209853D01*
X48939727Y-38101680D01*
X49174759Y-37944637D01*
X49374637Y-37744759D01*
X49531680Y-37509727D01*
X49639853Y-37248574D01*
X49695000Y-36971335D01*
X49695000Y-36688665D01*
X49639853Y-36411426D01*
X49531680Y-36150273D01*
X49374637Y-35915241D01*
X49174759Y-35715363D01*
X48939727Y-35558320D01*
X48678574Y-35450147D01*
X48587727Y-35432076D01*
X51311004Y-32708800D01*
X51340001Y-32685003D01*
X51434974Y-32569278D01*
X51505546Y-32437249D01*
X51549003Y-32293988D01*
X51560000Y-32182335D01*
X51560000Y-32182327D01*
X51563676Y-32145002D01*
X51560000Y-32107677D01*
X51560000Y-31608665D01*
X54445000Y-31608665D01*
X54445000Y-31891335D01*
X54500147Y-32168574D01*
X54608320Y-32429727D01*
X54765363Y-32664759D01*
X54965241Y-32864637D01*
X55200273Y-33021680D01*
X55461426Y-33129853D01*
X55738665Y-33185000D01*
X56021335Y-33185000D01*
X56203887Y-33148688D01*
X59125198Y-36070000D01*
X57098043Y-36070000D01*
X56994637Y-35915241D01*
X56794759Y-35715363D01*
X56559727Y-35558320D01*
X56298574Y-35450147D01*
X56021335Y-35395000D01*
X55738665Y-35395000D01*
X55461426Y-35450147D01*
X55200273Y-35558320D01*
X54965241Y-35715363D01*
X54765363Y-35915241D01*
X54608320Y-36150273D01*
X54500147Y-36411426D01*
X54445000Y-36688665D01*
X54445000Y-36971335D01*
X54500147Y-37248574D01*
X54608320Y-37509727D01*
X54765363Y-37744759D01*
X54965241Y-37944637D01*
X55200273Y-38101680D01*
X55461426Y-38209853D01*
X55738665Y-38265000D01*
X56021335Y-38265000D01*
X56298574Y-38209853D01*
X56559727Y-38101680D01*
X56794759Y-37944637D01*
X56994637Y-37744759D01*
X57098043Y-37590000D01*
X59125198Y-37590000D01*
X56203887Y-40511312D01*
X56021335Y-40475000D01*
X55738665Y-40475000D01*
X55461426Y-40530147D01*
X55200273Y-40638320D01*
X54965241Y-40795363D01*
X54765363Y-40995241D01*
X54608320Y-41230273D01*
X54500147Y-41491426D01*
X54445000Y-41768665D01*
X54445000Y-42051335D01*
X54500147Y-42328574D01*
X54608320Y-42589727D01*
X54765363Y-42824759D01*
X54965241Y-43024637D01*
X55200273Y-43181680D01*
X55461426Y-43289853D01*
X55738665Y-43345000D01*
X56021335Y-43345000D01*
X56298574Y-43289853D01*
X56559727Y-43181680D01*
X56794759Y-43024637D01*
X56800429Y-43018967D01*
X61865000Y-43018967D01*
X61865000Y-43341033D01*
X61927832Y-43656912D01*
X62051082Y-43954463D01*
X62230013Y-44222252D01*
X62457748Y-44449987D01*
X62725537Y-44628918D01*
X63023088Y-44752168D01*
X63338967Y-44815000D01*
X63661033Y-44815000D01*
X63976912Y-44752168D01*
X64274463Y-44628918D01*
X64542252Y-44449987D01*
X64769987Y-44222252D01*
X64948918Y-43954463D01*
X65072168Y-43656912D01*
X65135000Y-43341033D01*
X65135000Y-43018967D01*
X65072168Y-42703088D01*
X64948918Y-42405537D01*
X64769987Y-42137748D01*
X64542252Y-41910013D01*
X64274463Y-41731082D01*
X63976912Y-41607832D01*
X63661033Y-41545000D01*
X63338967Y-41545000D01*
X63023088Y-41607832D01*
X62725537Y-41731082D01*
X62457748Y-41910013D01*
X62230013Y-42137748D01*
X62051082Y-42405537D01*
X61927832Y-42703088D01*
X61865000Y-43018967D01*
X56800429Y-43018967D01*
X56994637Y-42824759D01*
X57151680Y-42589727D01*
X57259853Y-42328574D01*
X57315000Y-42051335D01*
X57315000Y-41768665D01*
X57278688Y-41586113D01*
X60004802Y-38860000D01*
X60951822Y-38860000D01*
X61076525Y-39046632D01*
X61283368Y-39253475D01*
X61526589Y-39415990D01*
X61796842Y-39527932D01*
X62083740Y-39585000D01*
X62376260Y-39585000D01*
X62663158Y-39527932D01*
X62933411Y-39415990D01*
X63176632Y-39253475D01*
X63383475Y-39046632D01*
X63545990Y-38803411D01*
X63657932Y-38533158D01*
X63715000Y-38246260D01*
X63715000Y-37953740D01*
X63657932Y-37666842D01*
X63591530Y-37506532D01*
X63669278Y-37464974D01*
X63785003Y-37370001D01*
X63808806Y-37340997D01*
X63915999Y-37233804D01*
X63945002Y-37210002D01*
X64039975Y-37094277D01*
X64110547Y-36962248D01*
X64154004Y-36818987D01*
X64165001Y-36707334D01*
X64165001Y-36707326D01*
X64168677Y-36670001D01*
X64165001Y-36632676D01*
X64165001Y-31692323D01*
X64168677Y-31655000D01*
X64165001Y-31617677D01*
X64165001Y-31617668D01*
X64154004Y-31506015D01*
X64110547Y-31362754D01*
X64039975Y-31230725D01*
X63945002Y-31115000D01*
X63916004Y-31091202D01*
X63713731Y-30888930D01*
X63765000Y-30631184D01*
X63765000Y-30328816D01*
X63706011Y-30032257D01*
X63590299Y-29752905D01*
X63422312Y-29501495D01*
X63355873Y-29435056D01*
X63374180Y-29429502D01*
X63484494Y-29370537D01*
X63581185Y-29291185D01*
X63660537Y-29194494D01*
X63719502Y-29084180D01*
X63755812Y-28964482D01*
X63768072Y-28840000D01*
X63765000Y-28225750D01*
X63606250Y-28067000D01*
X62357000Y-28067000D01*
X62357000Y-28087000D01*
X62103000Y-28087000D01*
X62103000Y-28067000D01*
X60853750Y-28067000D01*
X60695000Y-28225750D01*
X60691928Y-28840000D01*
X60704188Y-28964482D01*
X60740498Y-29084180D01*
X60799463Y-29194494D01*
X60878815Y-29291185D01*
X60975506Y-29370537D01*
X61085820Y-29429502D01*
X61104127Y-29435056D01*
X61037688Y-29501495D01*
X60869701Y-29752905D01*
X60753989Y-30032257D01*
X60695000Y-30328816D01*
X60695000Y-30631184D01*
X60753989Y-30927743D01*
X60869701Y-31207095D01*
X61037688Y-31458505D01*
X61251495Y-31672312D01*
X61502905Y-31840299D01*
X61782257Y-31956011D01*
X62078816Y-32015000D01*
X62381184Y-32015000D01*
X62638930Y-31963731D01*
X62645002Y-31969804D01*
X62645002Y-34071928D01*
X61380000Y-34071928D01*
X61255518Y-34084188D01*
X61135820Y-34120498D01*
X61025506Y-34179463D01*
X60928815Y-34258815D01*
X60849463Y-34355506D01*
X60790498Y-34465820D01*
X60754188Y-34585518D01*
X60741928Y-34710000D01*
X60741928Y-34800000D01*
X60004802Y-34800000D01*
X57278688Y-32073887D01*
X57315000Y-31891335D01*
X57315000Y-31608665D01*
X57259853Y-31331426D01*
X57151680Y-31070273D01*
X56994637Y-30835241D01*
X56794759Y-30635363D01*
X56559727Y-30478320D01*
X56298574Y-30370147D01*
X56021335Y-30315000D01*
X55738665Y-30315000D01*
X55461426Y-30370147D01*
X55200273Y-30478320D01*
X54965241Y-30635363D01*
X54765363Y-30835241D01*
X54608320Y-31070273D01*
X54500147Y-31331426D01*
X54445000Y-31608665D01*
X51560000Y-31608665D01*
X51560000Y-28158072D01*
X51650000Y-28158072D01*
X51774482Y-28145812D01*
X51894180Y-28109502D01*
X52004494Y-28050537D01*
X52101185Y-27971185D01*
X52180537Y-27874494D01*
X52239502Y-27764180D01*
X52262498Y-27688374D01*
X52458645Y-27865178D01*
X52708748Y-28014157D01*
X52983109Y-28111481D01*
X53213000Y-27990814D01*
X53213000Y-26797000D01*
X53467000Y-26797000D01*
X53467000Y-27990814D01*
X53696891Y-28111481D01*
X53971252Y-28014157D01*
X54221355Y-27865178D01*
X54437588Y-27670269D01*
X54611641Y-27436920D01*
X54736825Y-27174099D01*
X54777499Y-27040000D01*
X60691928Y-27040000D01*
X60695000Y-27654250D01*
X60853750Y-27813000D01*
X62103000Y-27813000D01*
X62103000Y-26563750D01*
X62357000Y-26563750D01*
X62357000Y-27813000D01*
X63606250Y-27813000D01*
X63765000Y-27654250D01*
X63768072Y-27040000D01*
X63755812Y-26915518D01*
X63719502Y-26795820D01*
X63660537Y-26685506D01*
X63581185Y-26588815D01*
X63484494Y-26509463D01*
X63374180Y-26450498D01*
X63254482Y-26414188D01*
X63130000Y-26401928D01*
X62515750Y-26405000D01*
X62357000Y-26563750D01*
X62103000Y-26563750D01*
X61944250Y-26405000D01*
X61330000Y-26401928D01*
X61205518Y-26414188D01*
X61085820Y-26450498D01*
X60975506Y-26509463D01*
X60878815Y-26588815D01*
X60799463Y-26685506D01*
X60740498Y-26795820D01*
X60704188Y-26915518D01*
X60691928Y-27040000D01*
X54777499Y-27040000D01*
X54781476Y-27026890D01*
X54660155Y-26797000D01*
X53467000Y-26797000D01*
X53213000Y-26797000D01*
X53193000Y-26797000D01*
X53193000Y-26543000D01*
X53213000Y-26543000D01*
X53213000Y-25349186D01*
X53467000Y-25349186D01*
X53467000Y-26543000D01*
X54660155Y-26543000D01*
X54781476Y-26313110D01*
X54736825Y-26165901D01*
X54611641Y-25903080D01*
X54437588Y-25669731D01*
X54221355Y-25474822D01*
X53971252Y-25325843D01*
X53696891Y-25228519D01*
X53467000Y-25349186D01*
X53213000Y-25349186D01*
X52983109Y-25228519D01*
X52708748Y-25325843D01*
X52458645Y-25474822D01*
X52262498Y-25651626D01*
X52239502Y-25575820D01*
X52180537Y-25465506D01*
X52101185Y-25368815D01*
X52004494Y-25289463D01*
X51894180Y-25230498D01*
X51774482Y-25194188D01*
X51650000Y-25181928D01*
X49950000Y-25181928D01*
X49825518Y-25194188D01*
X49705820Y-25230498D01*
X49595506Y-25289463D01*
X49498815Y-25368815D01*
X49419463Y-25465506D01*
X49360498Y-25575820D01*
X49324188Y-25695518D01*
X49311928Y-25820000D01*
X49311928Y-27520000D01*
X49324188Y-27644482D01*
X49360498Y-27764180D01*
X49419463Y-27874494D01*
X49498815Y-27971185D01*
X49595506Y-28050537D01*
X49705820Y-28109502D01*
X49825518Y-28145812D01*
X49950000Y-28158072D01*
X50040001Y-28158072D01*
X50040000Y-31830200D01*
X49596173Y-32274027D01*
X49639853Y-32168574D01*
X49695000Y-31891335D01*
X49695000Y-31608665D01*
X49639853Y-31331426D01*
X49531680Y-31070273D01*
X49374637Y-30835241D01*
X49174759Y-30635363D01*
X48939727Y-30478320D01*
X48678574Y-30370147D01*
X48401335Y-30315000D01*
X48118665Y-30315000D01*
X47841426Y-30370147D01*
X47580273Y-30478320D01*
X47345241Y-30635363D01*
X47145363Y-30835241D01*
X46988320Y-31070273D01*
X46880147Y-31331426D01*
X46825000Y-31608665D01*
X46825000Y-31891335D01*
X46861312Y-32073886D01*
X45405199Y-33530000D01*
X43128043Y-33530000D01*
X43024637Y-33375241D01*
X42824759Y-33175363D01*
X42670000Y-33071957D01*
X42670000Y-30428043D01*
X42824759Y-30324637D01*
X43024637Y-30124759D01*
X43181680Y-29889727D01*
X43289853Y-29628574D01*
X43345000Y-29351335D01*
X43345000Y-29068665D01*
X43289853Y-28791426D01*
X43181680Y-28530273D01*
X43024637Y-28295241D01*
X42824759Y-28095363D01*
X42589727Y-27938320D01*
X42328574Y-27830147D01*
X42051335Y-27775000D01*
X41768665Y-27775000D01*
X41491426Y-27830147D01*
X41230273Y-27938320D01*
X40995241Y-28095363D01*
X40795363Y-28295241D01*
X40638320Y-28530273D01*
X40530147Y-28791426D01*
X40475000Y-29068665D01*
X40475000Y-29351335D01*
X40530147Y-29628574D01*
X40638320Y-29889727D01*
X40795363Y-30124759D01*
X40995241Y-30324637D01*
X41150000Y-30428044D01*
X41150001Y-33071956D01*
X40995241Y-33175363D01*
X40795363Y-33375241D01*
X40638320Y-33610273D01*
X40530147Y-33871426D01*
X40475000Y-34148665D01*
X40475000Y-34431335D01*
X40511312Y-34613886D01*
X40230200Y-34894999D01*
X35728072Y-34894999D01*
X35728072Y-33490000D01*
X35715812Y-33365518D01*
X35679502Y-33245820D01*
X35620537Y-33135506D01*
X35541185Y-33038815D01*
X35444494Y-32959463D01*
X35334180Y-32900498D01*
X35214482Y-32864188D01*
X35090000Y-32851928D01*
X33490000Y-32851928D01*
X33365518Y-32864188D01*
X33245820Y-32900498D01*
X33135506Y-32959463D01*
X33038815Y-33038815D01*
X32959463Y-33135506D01*
X32900498Y-33245820D01*
X32864188Y-33365518D01*
X32851928Y-33490000D01*
X32851928Y-34894999D01*
X31968072Y-34894999D01*
X31968072Y-33876730D01*
X32116005Y-33728797D01*
X32145002Y-33705000D01*
X32239975Y-33589275D01*
X32310547Y-33457246D01*
X32354004Y-33313985D01*
X32365001Y-33202332D01*
X32365001Y-33202324D01*
X32368677Y-33164999D01*
X32365001Y-33127674D01*
X32365001Y-30202702D01*
X36096903Y-30202702D01*
X36168486Y-30446671D01*
X36423996Y-30567571D01*
X36698184Y-30636300D01*
X36980512Y-30650217D01*
X37260130Y-30608787D01*
X37526292Y-30513603D01*
X37651514Y-30446671D01*
X37723097Y-30202702D01*
X36910000Y-29389605D01*
X36096903Y-30202702D01*
X32365001Y-30202702D01*
X32365001Y-29280512D01*
X35469783Y-29280512D01*
X35511213Y-29560130D01*
X35606397Y-29826292D01*
X35673329Y-29951514D01*
X35917298Y-30023097D01*
X36730395Y-29210000D01*
X37089605Y-29210000D01*
X37902702Y-30023097D01*
X38146671Y-29951514D01*
X38267571Y-29696004D01*
X38336300Y-29421816D01*
X38350217Y-29139488D01*
X38308787Y-28859870D01*
X38213603Y-28593708D01*
X38146671Y-28468486D01*
X37902702Y-28396903D01*
X37089605Y-29210000D01*
X36730395Y-29210000D01*
X35917298Y-28396903D01*
X35673329Y-28468486D01*
X35552429Y-28723996D01*
X35483700Y-28998184D01*
X35469783Y-29280512D01*
X32365001Y-29280512D01*
X32365001Y-29102326D01*
X32368677Y-29065001D01*
X32365001Y-29027676D01*
X32365001Y-29027668D01*
X32354004Y-28916015D01*
X32310547Y-28772754D01*
X32239975Y-28640725D01*
X32145002Y-28525000D01*
X32116004Y-28501202D01*
X31918072Y-28303270D01*
X31918072Y-28217298D01*
X36096903Y-28217298D01*
X36910000Y-29030395D01*
X37723097Y-28217298D01*
X37651514Y-27973329D01*
X37396004Y-27852429D01*
X37121816Y-27783700D01*
X36839488Y-27769783D01*
X36559870Y-27811213D01*
X36293708Y-27906397D01*
X36168486Y-27973329D01*
X36096903Y-28217298D01*
X31918072Y-28217298D01*
X31918072Y-27576730D01*
X33334803Y-26160000D01*
X33996852Y-26160000D01*
X34022463Y-26221831D01*
X34212337Y-26505998D01*
X34454002Y-26747663D01*
X34738169Y-26937537D01*
X35053919Y-27068325D01*
X35389117Y-27135000D01*
X35730883Y-27135000D01*
X36066081Y-27068325D01*
X36381831Y-26937537D01*
X36665998Y-26747663D01*
X36907663Y-26505998D01*
X36911670Y-26500000D01*
X43981928Y-26500000D01*
X43994188Y-26624482D01*
X44030498Y-26744180D01*
X44089463Y-26854494D01*
X44168815Y-26951185D01*
X44265506Y-27030537D01*
X44375820Y-27089502D01*
X44495518Y-27125812D01*
X44620000Y-27138072D01*
X45434250Y-27135000D01*
X45593000Y-26976250D01*
X45593000Y-25527000D01*
X45847000Y-25527000D01*
X45847000Y-26976250D01*
X46005750Y-27135000D01*
X46820000Y-27138072D01*
X46944482Y-27125812D01*
X47064180Y-27089502D01*
X47174494Y-27030537D01*
X47271185Y-26951185D01*
X47350537Y-26854494D01*
X47409502Y-26744180D01*
X47445812Y-26624482D01*
X47458072Y-26500000D01*
X47455000Y-25685750D01*
X47296250Y-25527000D01*
X45847000Y-25527000D01*
X45593000Y-25527000D01*
X44143750Y-25527000D01*
X43985000Y-25685750D01*
X43981928Y-26500000D01*
X36911670Y-26500000D01*
X37097537Y-26221831D01*
X37228325Y-25906081D01*
X37295000Y-25570883D01*
X37295000Y-25229117D01*
X37228325Y-24893919D01*
X37097537Y-24578169D01*
X36911671Y-24300000D01*
X43981928Y-24300000D01*
X43985000Y-25114250D01*
X44143750Y-25273000D01*
X45593000Y-25273000D01*
X45593000Y-23823750D01*
X45847000Y-23823750D01*
X45847000Y-25273000D01*
X47296250Y-25273000D01*
X47455000Y-25114250D01*
X47458072Y-24300000D01*
X47445812Y-24175518D01*
X47409502Y-24055820D01*
X47350537Y-23945506D01*
X47271185Y-23848815D01*
X47174494Y-23769463D01*
X47064180Y-23710498D01*
X46944482Y-23674188D01*
X46820000Y-23661928D01*
X46005750Y-23665000D01*
X45847000Y-23823750D01*
X45593000Y-23823750D01*
X45434250Y-23665000D01*
X44620000Y-23661928D01*
X44495518Y-23674188D01*
X44375820Y-23710498D01*
X44265506Y-23769463D01*
X44168815Y-23848815D01*
X44089463Y-23945506D01*
X44030498Y-24055820D01*
X43994188Y-24175518D01*
X43981928Y-24300000D01*
X36911671Y-24300000D01*
X36907663Y-24294002D01*
X36665998Y-24052337D01*
X36381831Y-23862463D01*
X36066081Y-23731675D01*
X35730883Y-23665000D01*
X35389117Y-23665000D01*
X35053919Y-23731675D01*
X34738169Y-23862463D01*
X34454002Y-24052337D01*
X34212337Y-24294002D01*
X34022463Y-24578169D01*
X33996852Y-24640000D01*
X33057322Y-24640000D01*
X33019999Y-24636324D01*
X32982676Y-24640000D01*
X32982667Y-24640000D01*
X32871014Y-24650997D01*
X32727753Y-24694454D01*
X32595724Y-24765026D01*
X32595722Y-24765027D01*
X32595723Y-24765027D01*
X32508996Y-24836201D01*
X32508992Y-24836205D01*
X32479999Y-24859999D01*
X32456205Y-24888992D01*
X30843270Y-26501928D01*
X29680000Y-26501928D01*
X29555518Y-26514188D01*
X29435820Y-26550498D01*
X29325506Y-26609463D01*
X29228815Y-26688815D01*
X29149463Y-26785506D01*
X29090498Y-26895820D01*
X29054188Y-27015518D01*
X29041928Y-27140000D01*
X29041928Y-28303271D01*
X28895199Y-28450000D01*
X25768072Y-28450000D01*
X25768072Y-28257500D01*
X25755812Y-28133018D01*
X25719502Y-28013320D01*
X25660537Y-27903006D01*
X25581185Y-27806315D01*
X25484494Y-27726963D01*
X25374180Y-27667998D01*
X25254482Y-27631688D01*
X25130000Y-27619428D01*
X23130000Y-27619428D01*
X23005518Y-27631688D01*
X22885820Y-27667998D01*
X22775506Y-27726963D01*
X22678815Y-27806315D01*
X22599463Y-27903006D01*
X22540498Y-28013320D01*
X22504188Y-28133018D01*
X22491928Y-28257500D01*
X22491928Y-30162500D01*
X22504188Y-30286982D01*
X22540498Y-30406680D01*
X22599463Y-30516994D01*
X22678815Y-30613685D01*
X22775506Y-30693037D01*
X22867219Y-30742059D01*
X22754031Y-30883077D01*
X22610429Y-31158906D01*
X22539437Y-31377020D01*
X22659406Y-31623000D01*
X24003000Y-31623000D01*
X24003000Y-31603000D01*
X24257000Y-31603000D01*
X24257000Y-31623000D01*
X25600594Y-31623000D01*
X25720563Y-31377020D01*
X25649571Y-31158906D01*
X25505969Y-30883077D01*
X25392781Y-30742059D01*
X25484494Y-30693037D01*
X25581185Y-30613685D01*
X25660537Y-30516994D01*
X25719502Y-30406680D01*
X25755812Y-30286982D01*
X25768072Y-30162500D01*
X25768072Y-29970000D01*
X29118417Y-29970000D01*
X29053700Y-30228184D01*
X29039783Y-30510512D01*
X29081213Y-30790130D01*
X29176397Y-31056292D01*
X29243329Y-31181514D01*
X29487298Y-31253097D01*
X30300395Y-30440000D01*
X30286253Y-30425858D01*
X30465858Y-30246253D01*
X30480000Y-30260395D01*
X30494143Y-30246253D01*
X30673748Y-30425858D01*
X30659605Y-30440000D01*
X30673748Y-30454143D01*
X30494143Y-30633748D01*
X30480000Y-30619605D01*
X29666903Y-31432702D01*
X29738486Y-31676671D01*
X29993996Y-31797571D01*
X30268184Y-31866300D01*
X30550512Y-31880217D01*
X30830130Y-31838787D01*
X30845001Y-31833469D01*
X30845001Y-32801928D01*
X29630000Y-32801928D01*
X29505518Y-32814188D01*
X29385820Y-32850498D01*
X29275506Y-32909463D01*
X29178815Y-32988815D01*
X29099463Y-33085506D01*
X29040498Y-33195820D01*
X29004188Y-33315518D01*
X28991928Y-33440000D01*
X28991928Y-34894999D01*
X25809801Y-34894999D01*
X25689424Y-34774622D01*
X25742030Y-34601204D01*
X25772681Y-34290000D01*
X25742030Y-33978796D01*
X25651255Y-33679551D01*
X25503845Y-33403765D01*
X25305463Y-33162037D01*
X25126101Y-33014837D01*
X25311315Y-32859437D01*
X25505969Y-32616923D01*
X25649571Y-32341094D01*
X25720563Y-32122980D01*
X25600594Y-31877000D01*
X24257000Y-31877000D01*
X24257000Y-31897000D01*
X24003000Y-31897000D01*
X24003000Y-31877000D01*
X22659406Y-31877000D01*
X22539437Y-32122980D01*
X22610429Y-32341094D01*
X22754031Y-32616923D01*
X22948685Y-32859437D01*
X23133899Y-33014837D01*
X22954537Y-33162037D01*
X22756155Y-33403765D01*
X22608745Y-33679551D01*
X22517970Y-33978796D01*
X22487319Y-34290000D01*
X20980000Y-34290000D01*
X20980000Y-22698967D01*
X21225000Y-22698967D01*
X21225000Y-23021033D01*
X21287832Y-23336912D01*
X21411082Y-23634463D01*
X21590013Y-23902252D01*
X21817748Y-24129987D01*
X22085537Y-24308918D01*
X22383088Y-24432168D01*
X22698967Y-24495000D01*
X23021033Y-24495000D01*
X23336912Y-24432168D01*
X23634463Y-24308918D01*
X23902252Y-24129987D01*
X24129987Y-23902252D01*
X24308918Y-23634463D01*
X24432168Y-23336912D01*
X24495000Y-23021033D01*
X24495000Y-22698967D01*
X61865000Y-22698967D01*
X61865000Y-23021033D01*
X61927832Y-23336912D01*
X62051082Y-23634463D01*
X62230013Y-23902252D01*
X62457748Y-24129987D01*
X62725537Y-24308918D01*
X63023088Y-24432168D01*
X63338967Y-24495000D01*
X63661033Y-24495000D01*
X63976912Y-24432168D01*
X64274463Y-24308918D01*
X64542252Y-24129987D01*
X64769987Y-23902252D01*
X64948918Y-23634463D01*
X65072168Y-23336912D01*
X65135000Y-23021033D01*
X65135000Y-22698967D01*
X65072168Y-22383088D01*
X64948918Y-22085537D01*
X64769987Y-21817748D01*
X64542252Y-21590013D01*
X64274463Y-21411082D01*
X63976912Y-21287832D01*
X63661033Y-21225000D01*
X63338967Y-21225000D01*
X63023088Y-21287832D01*
X62725537Y-21411082D01*
X62457748Y-21590013D01*
X62230013Y-21817748D01*
X62051082Y-22085537D01*
X61927832Y-22383088D01*
X61865000Y-22698967D01*
X24495000Y-22698967D01*
X24432168Y-22383088D01*
X24308918Y-22085537D01*
X24129987Y-21817748D01*
X23902252Y-21590013D01*
X23634463Y-21411082D01*
X23336912Y-21287832D01*
X23021033Y-21225000D01*
X22698967Y-21225000D01*
X22383088Y-21287832D01*
X22085537Y-21411082D01*
X21817748Y-21590013D01*
X21590013Y-21817748D01*
X21411082Y-22085537D01*
X21287832Y-22383088D01*
X21225000Y-22698967D01*
X20980000Y-22698967D01*
X20980000Y-20980000D01*
X65380001Y-20980000D01*
X65380000Y-45060000D01*
G37*
G04 #@! TD.AperFunction*
M02*
