%FSLAX45Y45*%
G04 Gerber Fmt 4.5, Leading zero omitted, Abs format (unit mm)*
G04 Created by KiCad (PCBNEW (5.1.9)-1) date 2021-04-20 01:40:08*
%MOMM*%
%LPD*%
G01*
G04 APERTURE LIST*
%TA.AperFunction,Profile*%
%ADD10C,0.050000*%
%TD*%
%ADD11C,0.200000*%
%ADD12C,0.300000*%
G04 APERTURE END LIST*
D10*
X6604000Y-4572000D02*
X2032000Y-4572000D01*
X6604000Y-2032000D02*
X2032000Y-2032000D01*
X6604000Y-4572000D02*
X6604000Y-2032000D01*
X2032000Y-2032000D02*
X2032000Y-4572000D01*
D11*
X3008000Y-3643000D02*
X3088000Y-3723000D01*
X3088000Y-3643000D02*
X3008000Y-3723000D01*
X3008000Y-4143000D02*
X3088000Y-4223000D01*
X3088000Y-4143000D02*
X3008000Y-4223000D01*
X3389000Y-3389000D02*
X3469000Y-3469000D01*
X3469000Y-3389000D02*
X3389000Y-3469000D01*
X3389000Y-3643000D02*
X3469000Y-3723000D01*
X3469000Y-3643000D02*
X3389000Y-3723000D01*
X3389000Y-3897000D02*
X3469000Y-3977000D01*
X3469000Y-3897000D02*
X3389000Y-3977000D01*
X3389000Y-4151000D02*
X3469000Y-4231000D01*
X3469000Y-4151000D02*
X3389000Y-4231000D01*
X4032000Y-3008000D02*
X4112000Y-3088000D01*
X4112000Y-3008000D02*
X4032000Y-3088000D01*
X4151000Y-3389000D02*
X4231000Y-3469000D01*
X4231000Y-3389000D02*
X4151000Y-3469000D01*
X4151000Y-3643000D02*
X4231000Y-3723000D01*
X4231000Y-3643000D02*
X4151000Y-3723000D01*
X4151000Y-3897000D02*
X4231000Y-3977000D01*
X4231000Y-3897000D02*
X4151000Y-3977000D01*
X4151000Y-4151000D02*
X4231000Y-4231000D01*
X4231000Y-4151000D02*
X4151000Y-4231000D01*
X4532000Y-3008000D02*
X4612000Y-3088000D01*
X4612000Y-3008000D02*
X4532000Y-3088000D01*
X4786000Y-3262000D02*
X4866000Y-3342000D01*
X4866000Y-3262000D02*
X4786000Y-3342000D01*
X4786000Y-3770000D02*
X4866000Y-3850000D01*
X4866000Y-3770000D02*
X4786000Y-3850000D01*
X4786000Y-4151000D02*
X4866000Y-4231000D01*
X4866000Y-4151000D02*
X4786000Y-4231000D01*
X5548000Y-3262000D02*
X5628000Y-3342000D01*
X5628000Y-3262000D02*
X5548000Y-3342000D01*
X5548000Y-3770000D02*
X5628000Y-3850000D01*
X5628000Y-3770000D02*
X5548000Y-3850000D01*
X5548000Y-4151000D02*
X5628000Y-4231000D01*
X5628000Y-4151000D02*
X5548000Y-4231000D01*
X6268000Y-2794000D02*
G75*
G03*
X6268000Y-2794000I-45000J0D01*
G01*
X6268000Y-3048000D02*
G75*
G03*
X6268000Y-3048000I-45000J0D01*
G01*
X3048000Y-2744000D02*
X3048000Y-2844000D01*
X2998000Y-2794000D02*
X3098000Y-2794000D01*
X3048000Y-2998000D02*
X3048000Y-3098000D01*
X2998000Y-3048000D02*
X3098000Y-3048000D01*
X5080000Y-2617000D02*
X5080000Y-2717000D01*
X5030000Y-2667000D02*
X5130000Y-2667000D01*
X5334000Y-2617000D02*
X5334000Y-2717000D01*
X5284000Y-2667000D02*
X5384000Y-2667000D01*
X6223000Y-3506000D02*
X6223000Y-3606000D01*
X6173000Y-3556000D02*
X6273000Y-3556000D01*
X6223000Y-3760000D02*
X6223000Y-3860000D01*
X6173000Y-3810000D02*
X6273000Y-3810000D01*
X2451891Y-2959891D02*
X2451891Y-2882109D01*
X2374109Y-2882109D01*
X2374109Y-2959891D01*
X2451891Y-2959891D01*
X2451891Y-3213891D02*
X2451891Y-3136109D01*
X2374109Y-3136109D01*
X2374109Y-3213891D01*
X2451891Y-3213891D01*
X2451891Y-3467891D02*
X2451891Y-3390109D01*
X2374109Y-3390109D01*
X2374109Y-3467891D01*
X2451891Y-3467891D01*
X3594891Y-2578891D02*
X3594891Y-2501109D01*
X3517109Y-2501109D01*
X3517109Y-2578891D01*
X3594891Y-2578891D01*
X4610891Y-2578891D02*
X4610891Y-2501109D01*
X4533109Y-2501109D01*
X4533109Y-2578891D01*
X4610891Y-2578891D01*
D12*
X2315928Y-5040214D02*
X2315928Y-4740214D01*
X2387357Y-4740214D01*
X2430214Y-4754500D01*
X2458786Y-4783072D01*
X2473071Y-4811643D01*
X2487357Y-4868786D01*
X2487357Y-4911643D01*
X2473071Y-4968786D01*
X2458786Y-4997357D01*
X2430214Y-5025929D01*
X2387357Y-5040214D01*
X2315928Y-5040214D01*
X2615928Y-5040214D02*
X2615928Y-4840214D01*
X2615928Y-4897357D02*
X2630214Y-4868786D01*
X2644500Y-4854500D01*
X2673071Y-4840214D01*
X2701643Y-4840214D01*
X2801643Y-5040214D02*
X2801643Y-4840214D01*
X2801643Y-4740214D02*
X2787357Y-4754500D01*
X2801643Y-4768786D01*
X2815928Y-4754500D01*
X2801643Y-4740214D01*
X2801643Y-4768786D01*
X2987357Y-5040214D02*
X2958786Y-5025929D01*
X2944500Y-4997357D01*
X2944500Y-4740214D01*
X3144500Y-5040214D02*
X3115928Y-5025929D01*
X3101643Y-4997357D01*
X3101643Y-4740214D01*
X3487357Y-5040214D02*
X3487357Y-4740214D01*
X3587357Y-4954500D01*
X3687357Y-4740214D01*
X3687357Y-5040214D01*
X3958786Y-5040214D02*
X3958786Y-4883072D01*
X3944500Y-4854500D01*
X3915928Y-4840214D01*
X3858786Y-4840214D01*
X3830214Y-4854500D01*
X3958786Y-5025929D02*
X3930214Y-5040214D01*
X3858786Y-5040214D01*
X3830214Y-5025929D01*
X3815928Y-4997357D01*
X3815928Y-4968786D01*
X3830214Y-4940214D01*
X3858786Y-4925929D01*
X3930214Y-4925929D01*
X3958786Y-4911643D01*
X4101643Y-4840214D02*
X4101643Y-5140214D01*
X4101643Y-4854500D02*
X4130214Y-4840214D01*
X4187357Y-4840214D01*
X4215928Y-4854500D01*
X4230214Y-4868786D01*
X4244500Y-4897357D01*
X4244500Y-4983072D01*
X4230214Y-5011643D01*
X4215928Y-5025929D01*
X4187357Y-5040214D01*
X4130214Y-5040214D01*
X4101643Y-5025929D01*
X4373071Y-5011643D02*
X4387357Y-5025929D01*
X4373071Y-5040214D01*
X4358786Y-5025929D01*
X4373071Y-5011643D01*
X4373071Y-5040214D01*
X4373071Y-4854500D02*
X4387357Y-4868786D01*
X4373071Y-4883072D01*
X4358786Y-4868786D01*
X4373071Y-4854500D01*
X4373071Y-4883072D01*
X1949500Y-5494500D02*
X2029500Y-5574500D01*
X2029500Y-5494500D02*
X1949500Y-5574500D01*
X2373071Y-5370214D02*
X2401643Y-5370214D01*
X2430214Y-5384500D01*
X2444500Y-5398786D01*
X2458786Y-5427357D01*
X2473071Y-5484500D01*
X2473071Y-5555929D01*
X2458786Y-5613071D01*
X2444500Y-5641643D01*
X2430214Y-5655929D01*
X2401643Y-5670214D01*
X2373071Y-5670214D01*
X2344500Y-5655929D01*
X2330214Y-5641643D01*
X2315928Y-5613071D01*
X2301643Y-5555929D01*
X2301643Y-5484500D01*
X2315928Y-5427357D01*
X2330214Y-5398786D01*
X2344500Y-5384500D01*
X2373071Y-5370214D01*
X2601643Y-5641643D02*
X2615928Y-5655929D01*
X2601643Y-5670214D01*
X2587357Y-5655929D01*
X2601643Y-5641643D01*
X2601643Y-5670214D01*
X2787357Y-5498786D02*
X2758786Y-5484500D01*
X2744500Y-5470214D01*
X2730214Y-5441643D01*
X2730214Y-5427357D01*
X2744500Y-5398786D01*
X2758786Y-5384500D01*
X2787357Y-5370214D01*
X2844500Y-5370214D01*
X2873071Y-5384500D01*
X2887357Y-5398786D01*
X2901643Y-5427357D01*
X2901643Y-5441643D01*
X2887357Y-5470214D01*
X2873071Y-5484500D01*
X2844500Y-5498786D01*
X2787357Y-5498786D01*
X2758786Y-5513072D01*
X2744500Y-5527357D01*
X2730214Y-5555929D01*
X2730214Y-5613071D01*
X2744500Y-5641643D01*
X2758786Y-5655929D01*
X2787357Y-5670214D01*
X2844500Y-5670214D01*
X2873071Y-5655929D01*
X2887357Y-5641643D01*
X2901643Y-5613071D01*
X2901643Y-5555929D01*
X2887357Y-5527357D01*
X2873071Y-5513072D01*
X2844500Y-5498786D01*
X3087357Y-5370214D02*
X3115928Y-5370214D01*
X3144500Y-5384500D01*
X3158786Y-5398786D01*
X3173071Y-5427357D01*
X3187357Y-5484500D01*
X3187357Y-5555929D01*
X3173071Y-5613071D01*
X3158786Y-5641643D01*
X3144500Y-5655929D01*
X3115928Y-5670214D01*
X3087357Y-5670214D01*
X3058786Y-5655929D01*
X3044500Y-5641643D01*
X3030214Y-5613071D01*
X3015928Y-5555929D01*
X3015928Y-5484500D01*
X3030214Y-5427357D01*
X3044500Y-5398786D01*
X3058786Y-5384500D01*
X3087357Y-5370214D01*
X3315928Y-5670214D02*
X3315928Y-5470214D01*
X3315928Y-5498786D02*
X3330214Y-5484500D01*
X3358786Y-5470214D01*
X3401643Y-5470214D01*
X3430214Y-5484500D01*
X3444500Y-5513072D01*
X3444500Y-5670214D01*
X3444500Y-5513072D02*
X3458786Y-5484500D01*
X3487357Y-5470214D01*
X3530214Y-5470214D01*
X3558786Y-5484500D01*
X3573071Y-5513072D01*
X3573071Y-5670214D01*
X3715928Y-5670214D02*
X3715928Y-5470214D01*
X3715928Y-5498786D02*
X3730214Y-5484500D01*
X3758786Y-5470214D01*
X3801643Y-5470214D01*
X3830214Y-5484500D01*
X3844500Y-5513072D01*
X3844500Y-5670214D01*
X3844500Y-5513072D02*
X3858786Y-5484500D01*
X3887357Y-5470214D01*
X3930214Y-5470214D01*
X3958786Y-5484500D01*
X3973071Y-5513072D01*
X3973071Y-5670214D01*
X4558786Y-5355929D02*
X4301643Y-5741643D01*
X4944500Y-5370214D02*
X4973071Y-5370214D01*
X5001643Y-5384500D01*
X5015928Y-5398786D01*
X5030214Y-5427357D01*
X5044500Y-5484500D01*
X5044500Y-5555929D01*
X5030214Y-5613071D01*
X5015928Y-5641643D01*
X5001643Y-5655929D01*
X4973071Y-5670214D01*
X4944500Y-5670214D01*
X4915928Y-5655929D01*
X4901643Y-5641643D01*
X4887357Y-5613071D01*
X4873071Y-5555929D01*
X4873071Y-5484500D01*
X4887357Y-5427357D01*
X4901643Y-5398786D01*
X4915928Y-5384500D01*
X4944500Y-5370214D01*
X5173071Y-5641643D02*
X5187357Y-5655929D01*
X5173071Y-5670214D01*
X5158786Y-5655929D01*
X5173071Y-5641643D01*
X5173071Y-5670214D01*
X5373071Y-5370214D02*
X5401643Y-5370214D01*
X5430214Y-5384500D01*
X5444500Y-5398786D01*
X5458786Y-5427357D01*
X5473071Y-5484500D01*
X5473071Y-5555929D01*
X5458786Y-5613071D01*
X5444500Y-5641643D01*
X5430214Y-5655929D01*
X5401643Y-5670214D01*
X5373071Y-5670214D01*
X5344500Y-5655929D01*
X5330214Y-5641643D01*
X5315928Y-5613071D01*
X5301643Y-5555929D01*
X5301643Y-5484500D01*
X5315928Y-5427357D01*
X5330214Y-5398786D01*
X5344500Y-5384500D01*
X5373071Y-5370214D01*
X5573071Y-5370214D02*
X5758786Y-5370214D01*
X5658786Y-5484500D01*
X5701643Y-5484500D01*
X5730214Y-5498786D01*
X5744500Y-5513072D01*
X5758786Y-5541643D01*
X5758786Y-5613071D01*
X5744500Y-5641643D01*
X5730214Y-5655929D01*
X5701643Y-5670214D01*
X5615928Y-5670214D01*
X5587357Y-5655929D01*
X5573071Y-5641643D01*
X6044500Y-5670214D02*
X5873071Y-5670214D01*
X5958786Y-5670214D02*
X5958786Y-5370214D01*
X5930214Y-5413072D01*
X5901643Y-5441643D01*
X5873071Y-5455929D01*
X6158786Y-5370214D02*
X6158786Y-5427357D01*
X6273071Y-5370214D02*
X6273071Y-5427357D01*
X6715928Y-5784500D02*
X6701643Y-5770214D01*
X6673071Y-5727357D01*
X6658786Y-5698786D01*
X6644500Y-5655929D01*
X6630214Y-5584500D01*
X6630214Y-5527357D01*
X6644500Y-5455929D01*
X6658786Y-5413072D01*
X6673071Y-5384500D01*
X6701643Y-5341643D01*
X6715928Y-5327357D01*
X6987357Y-5670214D02*
X6815928Y-5670214D01*
X6901643Y-5670214D02*
X6901643Y-5370214D01*
X6873071Y-5413072D01*
X6844500Y-5441643D01*
X6815928Y-5455929D01*
X7158786Y-5498786D02*
X7130214Y-5484500D01*
X7115928Y-5470214D01*
X7101643Y-5441643D01*
X7101643Y-5427357D01*
X7115928Y-5398786D01*
X7130214Y-5384500D01*
X7158786Y-5370214D01*
X7215928Y-5370214D01*
X7244500Y-5384500D01*
X7258786Y-5398786D01*
X7273071Y-5427357D01*
X7273071Y-5441643D01*
X7258786Y-5470214D01*
X7244500Y-5484500D01*
X7215928Y-5498786D01*
X7158786Y-5498786D01*
X7130214Y-5513072D01*
X7115928Y-5527357D01*
X7101643Y-5555929D01*
X7101643Y-5613071D01*
X7115928Y-5641643D01*
X7130214Y-5655929D01*
X7158786Y-5670214D01*
X7215928Y-5670214D01*
X7244500Y-5655929D01*
X7258786Y-5641643D01*
X7273071Y-5613071D01*
X7273071Y-5555929D01*
X7258786Y-5527357D01*
X7244500Y-5513072D01*
X7215928Y-5498786D01*
X7630214Y-5670214D02*
X7630214Y-5370214D01*
X7758786Y-5670214D02*
X7758786Y-5513072D01*
X7744500Y-5484500D01*
X7715928Y-5470214D01*
X7673071Y-5470214D01*
X7644500Y-5484500D01*
X7630214Y-5498786D01*
X7944500Y-5670214D02*
X7915928Y-5655929D01*
X7901643Y-5641643D01*
X7887357Y-5613071D01*
X7887357Y-5527357D01*
X7901643Y-5498786D01*
X7915928Y-5484500D01*
X7944500Y-5470214D01*
X7987357Y-5470214D01*
X8015928Y-5484500D01*
X8030214Y-5498786D01*
X8044500Y-5527357D01*
X8044500Y-5613071D01*
X8030214Y-5641643D01*
X8015928Y-5655929D01*
X7987357Y-5670214D01*
X7944500Y-5670214D01*
X8215928Y-5670214D02*
X8187357Y-5655929D01*
X8173071Y-5627357D01*
X8173071Y-5370214D01*
X8444500Y-5655929D02*
X8415928Y-5670214D01*
X8358786Y-5670214D01*
X8330214Y-5655929D01*
X8315928Y-5627357D01*
X8315928Y-5513072D01*
X8330214Y-5484500D01*
X8358786Y-5470214D01*
X8415928Y-5470214D01*
X8444500Y-5484500D01*
X8458786Y-5513072D01*
X8458786Y-5541643D01*
X8315928Y-5570214D01*
X8573071Y-5655929D02*
X8601643Y-5670214D01*
X8658786Y-5670214D01*
X8687357Y-5655929D01*
X8701643Y-5627357D01*
X8701643Y-5613071D01*
X8687357Y-5584500D01*
X8658786Y-5570214D01*
X8615928Y-5570214D01*
X8587357Y-5555929D01*
X8573071Y-5527357D01*
X8573071Y-5513072D01*
X8587357Y-5484500D01*
X8615928Y-5470214D01*
X8658786Y-5470214D01*
X8687357Y-5484500D01*
X8801643Y-5784500D02*
X8815928Y-5770214D01*
X8844500Y-5727357D01*
X8858786Y-5698786D01*
X8873071Y-5655929D01*
X8887357Y-5584500D01*
X8887357Y-5527357D01*
X8873071Y-5455929D01*
X8858786Y-5413072D01*
X8844500Y-5384500D01*
X8815928Y-5341643D01*
X8801643Y-5327357D01*
X2029500Y-5930500D02*
G75*
G03*
X2029500Y-5930500I-45000J0D01*
G01*
X2373071Y-5766214D02*
X2401643Y-5766214D01*
X2430214Y-5780500D01*
X2444500Y-5794786D01*
X2458786Y-5823357D01*
X2473071Y-5880500D01*
X2473071Y-5951929D01*
X2458786Y-6009071D01*
X2444500Y-6037643D01*
X2430214Y-6051929D01*
X2401643Y-6066214D01*
X2373071Y-6066214D01*
X2344500Y-6051929D01*
X2330214Y-6037643D01*
X2315928Y-6009071D01*
X2301643Y-5951929D01*
X2301643Y-5880500D01*
X2315928Y-5823357D01*
X2330214Y-5794786D01*
X2344500Y-5780500D01*
X2373071Y-5766214D01*
X2601643Y-6037643D02*
X2615928Y-6051929D01*
X2601643Y-6066214D01*
X2587357Y-6051929D01*
X2601643Y-6037643D01*
X2601643Y-6066214D01*
X2758786Y-6066214D02*
X2815928Y-6066214D01*
X2844500Y-6051929D01*
X2858786Y-6037643D01*
X2887357Y-5994786D01*
X2901643Y-5937643D01*
X2901643Y-5823357D01*
X2887357Y-5794786D01*
X2873071Y-5780500D01*
X2844500Y-5766214D01*
X2787357Y-5766214D01*
X2758786Y-5780500D01*
X2744500Y-5794786D01*
X2730214Y-5823357D01*
X2730214Y-5894786D01*
X2744500Y-5923357D01*
X2758786Y-5937643D01*
X2787357Y-5951929D01*
X2844500Y-5951929D01*
X2873071Y-5937643D01*
X2887357Y-5923357D01*
X2901643Y-5894786D01*
X3087357Y-5766214D02*
X3115928Y-5766214D01*
X3144500Y-5780500D01*
X3158786Y-5794786D01*
X3173071Y-5823357D01*
X3187357Y-5880500D01*
X3187357Y-5951929D01*
X3173071Y-6009071D01*
X3158786Y-6037643D01*
X3144500Y-6051929D01*
X3115928Y-6066214D01*
X3087357Y-6066214D01*
X3058786Y-6051929D01*
X3044500Y-6037643D01*
X3030214Y-6009071D01*
X3015928Y-5951929D01*
X3015928Y-5880500D01*
X3030214Y-5823357D01*
X3044500Y-5794786D01*
X3058786Y-5780500D01*
X3087357Y-5766214D01*
X3315928Y-6066214D02*
X3315928Y-5866214D01*
X3315928Y-5894786D02*
X3330214Y-5880500D01*
X3358786Y-5866214D01*
X3401643Y-5866214D01*
X3430214Y-5880500D01*
X3444500Y-5909071D01*
X3444500Y-6066214D01*
X3444500Y-5909071D02*
X3458786Y-5880500D01*
X3487357Y-5866214D01*
X3530214Y-5866214D01*
X3558786Y-5880500D01*
X3573071Y-5909071D01*
X3573071Y-6066214D01*
X3715928Y-6066214D02*
X3715928Y-5866214D01*
X3715928Y-5894786D02*
X3730214Y-5880500D01*
X3758786Y-5866214D01*
X3801643Y-5866214D01*
X3830214Y-5880500D01*
X3844500Y-5909071D01*
X3844500Y-6066214D01*
X3844500Y-5909071D02*
X3858786Y-5880500D01*
X3887357Y-5866214D01*
X3930214Y-5866214D01*
X3958786Y-5880500D01*
X3973071Y-5909071D01*
X3973071Y-6066214D01*
X4558786Y-5751929D02*
X4301643Y-6137643D01*
X4944500Y-5766214D02*
X4973071Y-5766214D01*
X5001643Y-5780500D01*
X5015928Y-5794786D01*
X5030214Y-5823357D01*
X5044500Y-5880500D01*
X5044500Y-5951929D01*
X5030214Y-6009071D01*
X5015928Y-6037643D01*
X5001643Y-6051929D01*
X4973071Y-6066214D01*
X4944500Y-6066214D01*
X4915928Y-6051929D01*
X4901643Y-6037643D01*
X4887357Y-6009071D01*
X4873071Y-5951929D01*
X4873071Y-5880500D01*
X4887357Y-5823357D01*
X4901643Y-5794786D01*
X4915928Y-5780500D01*
X4944500Y-5766214D01*
X5173071Y-6037643D02*
X5187357Y-6051929D01*
X5173071Y-6066214D01*
X5158786Y-6051929D01*
X5173071Y-6037643D01*
X5173071Y-6066214D01*
X5373071Y-5766214D02*
X5401643Y-5766214D01*
X5430214Y-5780500D01*
X5444500Y-5794786D01*
X5458786Y-5823357D01*
X5473071Y-5880500D01*
X5473071Y-5951929D01*
X5458786Y-6009071D01*
X5444500Y-6037643D01*
X5430214Y-6051929D01*
X5401643Y-6066214D01*
X5373071Y-6066214D01*
X5344500Y-6051929D01*
X5330214Y-6037643D01*
X5315928Y-6009071D01*
X5301643Y-5951929D01*
X5301643Y-5880500D01*
X5315928Y-5823357D01*
X5330214Y-5794786D01*
X5344500Y-5780500D01*
X5373071Y-5766214D01*
X5573071Y-5766214D02*
X5758786Y-5766214D01*
X5658786Y-5880500D01*
X5701643Y-5880500D01*
X5730214Y-5894786D01*
X5744500Y-5909071D01*
X5758786Y-5937643D01*
X5758786Y-6009071D01*
X5744500Y-6037643D01*
X5730214Y-6051929D01*
X5701643Y-6066214D01*
X5615928Y-6066214D01*
X5587357Y-6051929D01*
X5573071Y-6037643D01*
X6030214Y-5766214D02*
X5887357Y-5766214D01*
X5873071Y-5909071D01*
X5887357Y-5894786D01*
X5915928Y-5880500D01*
X5987357Y-5880500D01*
X6015928Y-5894786D01*
X6030214Y-5909071D01*
X6044500Y-5937643D01*
X6044500Y-6009071D01*
X6030214Y-6037643D01*
X6015928Y-6051929D01*
X5987357Y-6066214D01*
X5915928Y-6066214D01*
X5887357Y-6051929D01*
X5873071Y-6037643D01*
X6158786Y-5766214D02*
X6158786Y-5823357D01*
X6273071Y-5766214D02*
X6273071Y-5823357D01*
X6715928Y-6180500D02*
X6701643Y-6166214D01*
X6673071Y-6123357D01*
X6658786Y-6094786D01*
X6644500Y-6051929D01*
X6630214Y-5980500D01*
X6630214Y-5923357D01*
X6644500Y-5851929D01*
X6658786Y-5809071D01*
X6673071Y-5780500D01*
X6701643Y-5737643D01*
X6715928Y-5723357D01*
X6815928Y-5794786D02*
X6830214Y-5780500D01*
X6858786Y-5766214D01*
X6930214Y-5766214D01*
X6958786Y-5780500D01*
X6973071Y-5794786D01*
X6987357Y-5823357D01*
X6987357Y-5851929D01*
X6973071Y-5894786D01*
X6801643Y-6066214D01*
X6987357Y-6066214D01*
X7344500Y-6066214D02*
X7344500Y-5766214D01*
X7473071Y-6066214D02*
X7473071Y-5909071D01*
X7458786Y-5880500D01*
X7430214Y-5866214D01*
X7387357Y-5866214D01*
X7358786Y-5880500D01*
X7344500Y-5894786D01*
X7658786Y-6066214D02*
X7630214Y-6051929D01*
X7615928Y-6037643D01*
X7601643Y-6009071D01*
X7601643Y-5923357D01*
X7615928Y-5894786D01*
X7630214Y-5880500D01*
X7658786Y-5866214D01*
X7701643Y-5866214D01*
X7730214Y-5880500D01*
X7744500Y-5894786D01*
X7758786Y-5923357D01*
X7758786Y-6009071D01*
X7744500Y-6037643D01*
X7730214Y-6051929D01*
X7701643Y-6066214D01*
X7658786Y-6066214D01*
X7930214Y-6066214D02*
X7901643Y-6051929D01*
X7887357Y-6023357D01*
X7887357Y-5766214D01*
X8158786Y-6051929D02*
X8130214Y-6066214D01*
X8073071Y-6066214D01*
X8044500Y-6051929D01*
X8030214Y-6023357D01*
X8030214Y-5909071D01*
X8044500Y-5880500D01*
X8073071Y-5866214D01*
X8130214Y-5866214D01*
X8158786Y-5880500D01*
X8173071Y-5909071D01*
X8173071Y-5937643D01*
X8030214Y-5966214D01*
X8287357Y-6051929D02*
X8315928Y-6066214D01*
X8373071Y-6066214D01*
X8401643Y-6051929D01*
X8415928Y-6023357D01*
X8415928Y-6009071D01*
X8401643Y-5980500D01*
X8373071Y-5966214D01*
X8330214Y-5966214D01*
X8301643Y-5951929D01*
X8287357Y-5923357D01*
X8287357Y-5909071D01*
X8301643Y-5880500D01*
X8330214Y-5866214D01*
X8373071Y-5866214D01*
X8401643Y-5880500D01*
X8515928Y-6180500D02*
X8530214Y-6166214D01*
X8558786Y-6123357D01*
X8573071Y-6094786D01*
X8587357Y-6051929D01*
X8601643Y-5980500D01*
X8601643Y-5923357D01*
X8587357Y-5851929D01*
X8573071Y-5809071D01*
X8558786Y-5780500D01*
X8530214Y-5737643D01*
X8515928Y-5723357D01*
X1979500Y-6276500D02*
X1979500Y-6376500D01*
X1929500Y-6326500D02*
X2029500Y-6326500D01*
X2473071Y-6462214D02*
X2301643Y-6462214D01*
X2387357Y-6462214D02*
X2387357Y-6162214D01*
X2358786Y-6205071D01*
X2330214Y-6233643D01*
X2301643Y-6247929D01*
X2601643Y-6433643D02*
X2615928Y-6447929D01*
X2601643Y-6462214D01*
X2587357Y-6447929D01*
X2601643Y-6433643D01*
X2601643Y-6462214D01*
X2801643Y-6162214D02*
X2830214Y-6162214D01*
X2858786Y-6176500D01*
X2873071Y-6190786D01*
X2887357Y-6219357D01*
X2901643Y-6276500D01*
X2901643Y-6347929D01*
X2887357Y-6405071D01*
X2873071Y-6433643D01*
X2858786Y-6447929D01*
X2830214Y-6462214D01*
X2801643Y-6462214D01*
X2773071Y-6447929D01*
X2758786Y-6433643D01*
X2744500Y-6405071D01*
X2730214Y-6347929D01*
X2730214Y-6276500D01*
X2744500Y-6219357D01*
X2758786Y-6190786D01*
X2773071Y-6176500D01*
X2801643Y-6162214D01*
X3087357Y-6162214D02*
X3115928Y-6162214D01*
X3144500Y-6176500D01*
X3158786Y-6190786D01*
X3173071Y-6219357D01*
X3187357Y-6276500D01*
X3187357Y-6347929D01*
X3173071Y-6405071D01*
X3158786Y-6433643D01*
X3144500Y-6447929D01*
X3115928Y-6462214D01*
X3087357Y-6462214D01*
X3058786Y-6447929D01*
X3044500Y-6433643D01*
X3030214Y-6405071D01*
X3015928Y-6347929D01*
X3015928Y-6276500D01*
X3030214Y-6219357D01*
X3044500Y-6190786D01*
X3058786Y-6176500D01*
X3087357Y-6162214D01*
X3315928Y-6462214D02*
X3315928Y-6262214D01*
X3315928Y-6290786D02*
X3330214Y-6276500D01*
X3358786Y-6262214D01*
X3401643Y-6262214D01*
X3430214Y-6276500D01*
X3444500Y-6305071D01*
X3444500Y-6462214D01*
X3444500Y-6305071D02*
X3458786Y-6276500D01*
X3487357Y-6262214D01*
X3530214Y-6262214D01*
X3558786Y-6276500D01*
X3573071Y-6305071D01*
X3573071Y-6462214D01*
X3715928Y-6462214D02*
X3715928Y-6262214D01*
X3715928Y-6290786D02*
X3730214Y-6276500D01*
X3758786Y-6262214D01*
X3801643Y-6262214D01*
X3830214Y-6276500D01*
X3844500Y-6305071D01*
X3844500Y-6462214D01*
X3844500Y-6305071D02*
X3858786Y-6276500D01*
X3887357Y-6262214D01*
X3930214Y-6262214D01*
X3958786Y-6276500D01*
X3973071Y-6305071D01*
X3973071Y-6462214D01*
X4558786Y-6147929D02*
X4301643Y-6533643D01*
X4944500Y-6162214D02*
X4973071Y-6162214D01*
X5001643Y-6176500D01*
X5015928Y-6190786D01*
X5030214Y-6219357D01*
X5044500Y-6276500D01*
X5044500Y-6347929D01*
X5030214Y-6405071D01*
X5015928Y-6433643D01*
X5001643Y-6447929D01*
X4973071Y-6462214D01*
X4944500Y-6462214D01*
X4915928Y-6447929D01*
X4901643Y-6433643D01*
X4887357Y-6405071D01*
X4873071Y-6347929D01*
X4873071Y-6276500D01*
X4887357Y-6219357D01*
X4901643Y-6190786D01*
X4915928Y-6176500D01*
X4944500Y-6162214D01*
X5173071Y-6433643D02*
X5187357Y-6447929D01*
X5173071Y-6462214D01*
X5158786Y-6447929D01*
X5173071Y-6433643D01*
X5173071Y-6462214D01*
X5373071Y-6162214D02*
X5401643Y-6162214D01*
X5430214Y-6176500D01*
X5444500Y-6190786D01*
X5458786Y-6219357D01*
X5473071Y-6276500D01*
X5473071Y-6347929D01*
X5458786Y-6405071D01*
X5444500Y-6433643D01*
X5430214Y-6447929D01*
X5401643Y-6462214D01*
X5373071Y-6462214D01*
X5344500Y-6447929D01*
X5330214Y-6433643D01*
X5315928Y-6405071D01*
X5301643Y-6347929D01*
X5301643Y-6276500D01*
X5315928Y-6219357D01*
X5330214Y-6190786D01*
X5344500Y-6176500D01*
X5373071Y-6162214D01*
X5573071Y-6162214D02*
X5758786Y-6162214D01*
X5658786Y-6276500D01*
X5701643Y-6276500D01*
X5730214Y-6290786D01*
X5744500Y-6305071D01*
X5758786Y-6333643D01*
X5758786Y-6405071D01*
X5744500Y-6433643D01*
X5730214Y-6447929D01*
X5701643Y-6462214D01*
X5615928Y-6462214D01*
X5587357Y-6447929D01*
X5573071Y-6433643D01*
X5901643Y-6462214D02*
X5958786Y-6462214D01*
X5987357Y-6447929D01*
X6001643Y-6433643D01*
X6030214Y-6390786D01*
X6044500Y-6333643D01*
X6044500Y-6219357D01*
X6030214Y-6190786D01*
X6015928Y-6176500D01*
X5987357Y-6162214D01*
X5930214Y-6162214D01*
X5901643Y-6176500D01*
X5887357Y-6190786D01*
X5873071Y-6219357D01*
X5873071Y-6290786D01*
X5887357Y-6319357D01*
X5901643Y-6333643D01*
X5930214Y-6347929D01*
X5987357Y-6347929D01*
X6015928Y-6333643D01*
X6030214Y-6319357D01*
X6044500Y-6290786D01*
X6158786Y-6162214D02*
X6158786Y-6219357D01*
X6273071Y-6162214D02*
X6273071Y-6219357D01*
X6715928Y-6576500D02*
X6701643Y-6562214D01*
X6673071Y-6519357D01*
X6658786Y-6490786D01*
X6644500Y-6447929D01*
X6630214Y-6376500D01*
X6630214Y-6319357D01*
X6644500Y-6247929D01*
X6658786Y-6205071D01*
X6673071Y-6176500D01*
X6701643Y-6133643D01*
X6715928Y-6119357D01*
X6958786Y-6162214D02*
X6901643Y-6162214D01*
X6873071Y-6176500D01*
X6858786Y-6190786D01*
X6830214Y-6233643D01*
X6815928Y-6290786D01*
X6815928Y-6405071D01*
X6830214Y-6433643D01*
X6844500Y-6447929D01*
X6873071Y-6462214D01*
X6930214Y-6462214D01*
X6958786Y-6447929D01*
X6973071Y-6433643D01*
X6987357Y-6405071D01*
X6987357Y-6333643D01*
X6973071Y-6305071D01*
X6958786Y-6290786D01*
X6930214Y-6276500D01*
X6873071Y-6276500D01*
X6844500Y-6290786D01*
X6830214Y-6305071D01*
X6815928Y-6333643D01*
X7344500Y-6462214D02*
X7344500Y-6162214D01*
X7473071Y-6462214D02*
X7473071Y-6305071D01*
X7458786Y-6276500D01*
X7430214Y-6262214D01*
X7387357Y-6262214D01*
X7358786Y-6276500D01*
X7344500Y-6290786D01*
X7658786Y-6462214D02*
X7630214Y-6447929D01*
X7615928Y-6433643D01*
X7601643Y-6405071D01*
X7601643Y-6319357D01*
X7615928Y-6290786D01*
X7630214Y-6276500D01*
X7658786Y-6262214D01*
X7701643Y-6262214D01*
X7730214Y-6276500D01*
X7744500Y-6290786D01*
X7758786Y-6319357D01*
X7758786Y-6405071D01*
X7744500Y-6433643D01*
X7730214Y-6447929D01*
X7701643Y-6462214D01*
X7658786Y-6462214D01*
X7930214Y-6462214D02*
X7901643Y-6447929D01*
X7887357Y-6419357D01*
X7887357Y-6162214D01*
X8158786Y-6447929D02*
X8130214Y-6462214D01*
X8073071Y-6462214D01*
X8044500Y-6447929D01*
X8030214Y-6419357D01*
X8030214Y-6305071D01*
X8044500Y-6276500D01*
X8073071Y-6262214D01*
X8130214Y-6262214D01*
X8158786Y-6276500D01*
X8173071Y-6305071D01*
X8173071Y-6333643D01*
X8030214Y-6362214D01*
X8287357Y-6447929D02*
X8315928Y-6462214D01*
X8373071Y-6462214D01*
X8401643Y-6447929D01*
X8415928Y-6419357D01*
X8415928Y-6405071D01*
X8401643Y-6376500D01*
X8373071Y-6362214D01*
X8330214Y-6362214D01*
X8301643Y-6347929D01*
X8287357Y-6319357D01*
X8287357Y-6305071D01*
X8301643Y-6276500D01*
X8330214Y-6262214D01*
X8373071Y-6262214D01*
X8401643Y-6276500D01*
X8515928Y-6576500D02*
X8530214Y-6562214D01*
X8558786Y-6519357D01*
X8573071Y-6490786D01*
X8587357Y-6447929D01*
X8601643Y-6376500D01*
X8601643Y-6319357D01*
X8587357Y-6247929D01*
X8573071Y-6205071D01*
X8558786Y-6176500D01*
X8530214Y-6133643D01*
X8515928Y-6119357D01*
X2013391Y-6761391D02*
X2013391Y-6683609D01*
X1935609Y-6683609D01*
X1935609Y-6761391D01*
X2013391Y-6761391D01*
X2473071Y-6858214D02*
X2301643Y-6858214D01*
X2387357Y-6858214D02*
X2387357Y-6558214D01*
X2358786Y-6601071D01*
X2330214Y-6629643D01*
X2301643Y-6643929D01*
X2601643Y-6829643D02*
X2615928Y-6843929D01*
X2601643Y-6858214D01*
X2587357Y-6843929D01*
X2601643Y-6829643D01*
X2601643Y-6858214D01*
X2901643Y-6858214D02*
X2730214Y-6858214D01*
X2815928Y-6858214D02*
X2815928Y-6558214D01*
X2787357Y-6601071D01*
X2758786Y-6629643D01*
X2730214Y-6643929D01*
X3087357Y-6558214D02*
X3115928Y-6558214D01*
X3144500Y-6572500D01*
X3158786Y-6586786D01*
X3173071Y-6615357D01*
X3187357Y-6672500D01*
X3187357Y-6743929D01*
X3173071Y-6801071D01*
X3158786Y-6829643D01*
X3144500Y-6843929D01*
X3115928Y-6858214D01*
X3087357Y-6858214D01*
X3058786Y-6843929D01*
X3044500Y-6829643D01*
X3030214Y-6801071D01*
X3015928Y-6743929D01*
X3015928Y-6672500D01*
X3030214Y-6615357D01*
X3044500Y-6586786D01*
X3058786Y-6572500D01*
X3087357Y-6558214D01*
X3315928Y-6858214D02*
X3315928Y-6658214D01*
X3315928Y-6686786D02*
X3330214Y-6672500D01*
X3358786Y-6658214D01*
X3401643Y-6658214D01*
X3430214Y-6672500D01*
X3444500Y-6701071D01*
X3444500Y-6858214D01*
X3444500Y-6701071D02*
X3458786Y-6672500D01*
X3487357Y-6658214D01*
X3530214Y-6658214D01*
X3558786Y-6672500D01*
X3573071Y-6701071D01*
X3573071Y-6858214D01*
X3715928Y-6858214D02*
X3715928Y-6658214D01*
X3715928Y-6686786D02*
X3730214Y-6672500D01*
X3758786Y-6658214D01*
X3801643Y-6658214D01*
X3830214Y-6672500D01*
X3844500Y-6701071D01*
X3844500Y-6858214D01*
X3844500Y-6701071D02*
X3858786Y-6672500D01*
X3887357Y-6658214D01*
X3930214Y-6658214D01*
X3958786Y-6672500D01*
X3973071Y-6701071D01*
X3973071Y-6858214D01*
X4558786Y-6543929D02*
X4301643Y-6929643D01*
X4944500Y-6558214D02*
X4973071Y-6558214D01*
X5001643Y-6572500D01*
X5015928Y-6586786D01*
X5030214Y-6615357D01*
X5044500Y-6672500D01*
X5044500Y-6743929D01*
X5030214Y-6801071D01*
X5015928Y-6829643D01*
X5001643Y-6843929D01*
X4973071Y-6858214D01*
X4944500Y-6858214D01*
X4915928Y-6843929D01*
X4901643Y-6829643D01*
X4887357Y-6801071D01*
X4873071Y-6743929D01*
X4873071Y-6672500D01*
X4887357Y-6615357D01*
X4901643Y-6586786D01*
X4915928Y-6572500D01*
X4944500Y-6558214D01*
X5173071Y-6829643D02*
X5187357Y-6843929D01*
X5173071Y-6858214D01*
X5158786Y-6843929D01*
X5173071Y-6829643D01*
X5173071Y-6858214D01*
X5373071Y-6558214D02*
X5401643Y-6558214D01*
X5430214Y-6572500D01*
X5444500Y-6586786D01*
X5458786Y-6615357D01*
X5473071Y-6672500D01*
X5473071Y-6743929D01*
X5458786Y-6801071D01*
X5444500Y-6829643D01*
X5430214Y-6843929D01*
X5401643Y-6858214D01*
X5373071Y-6858214D01*
X5344500Y-6843929D01*
X5330214Y-6829643D01*
X5315928Y-6801071D01*
X5301643Y-6743929D01*
X5301643Y-6672500D01*
X5315928Y-6615357D01*
X5330214Y-6586786D01*
X5344500Y-6572500D01*
X5373071Y-6558214D01*
X5730214Y-6658214D02*
X5730214Y-6858214D01*
X5658786Y-6543929D02*
X5587357Y-6758214D01*
X5773071Y-6758214D01*
X5858786Y-6558214D02*
X6044500Y-6558214D01*
X5944500Y-6672500D01*
X5987357Y-6672500D01*
X6015928Y-6686786D01*
X6030214Y-6701071D01*
X6044500Y-6729643D01*
X6044500Y-6801071D01*
X6030214Y-6829643D01*
X6015928Y-6843929D01*
X5987357Y-6858214D01*
X5901643Y-6858214D01*
X5873071Y-6843929D01*
X5858786Y-6829643D01*
X6158786Y-6558214D02*
X6158786Y-6615357D01*
X6273071Y-6558214D02*
X6273071Y-6615357D01*
X6715928Y-6972500D02*
X6701643Y-6958214D01*
X6673071Y-6915357D01*
X6658786Y-6886786D01*
X6644500Y-6843929D01*
X6630214Y-6772500D01*
X6630214Y-6715357D01*
X6644500Y-6643929D01*
X6658786Y-6601071D01*
X6673071Y-6572500D01*
X6701643Y-6529643D01*
X6715928Y-6515357D01*
X6973071Y-6558214D02*
X6830214Y-6558214D01*
X6815928Y-6701071D01*
X6830214Y-6686786D01*
X6858786Y-6672500D01*
X6930214Y-6672500D01*
X6958786Y-6686786D01*
X6973071Y-6701071D01*
X6987357Y-6729643D01*
X6987357Y-6801071D01*
X6973071Y-6829643D01*
X6958786Y-6843929D01*
X6930214Y-6858214D01*
X6858786Y-6858214D01*
X6830214Y-6843929D01*
X6815928Y-6829643D01*
X7344500Y-6858214D02*
X7344500Y-6558214D01*
X7473071Y-6858214D02*
X7473071Y-6701071D01*
X7458786Y-6672500D01*
X7430214Y-6658214D01*
X7387357Y-6658214D01*
X7358786Y-6672500D01*
X7344500Y-6686786D01*
X7658786Y-6858214D02*
X7630214Y-6843929D01*
X7615928Y-6829643D01*
X7601643Y-6801071D01*
X7601643Y-6715357D01*
X7615928Y-6686786D01*
X7630214Y-6672500D01*
X7658786Y-6658214D01*
X7701643Y-6658214D01*
X7730214Y-6672500D01*
X7744500Y-6686786D01*
X7758786Y-6715357D01*
X7758786Y-6801071D01*
X7744500Y-6829643D01*
X7730214Y-6843929D01*
X7701643Y-6858214D01*
X7658786Y-6858214D01*
X7930214Y-6858214D02*
X7901643Y-6843929D01*
X7887357Y-6815357D01*
X7887357Y-6558214D01*
X8158786Y-6843929D02*
X8130214Y-6858214D01*
X8073071Y-6858214D01*
X8044500Y-6843929D01*
X8030214Y-6815357D01*
X8030214Y-6701071D01*
X8044500Y-6672500D01*
X8073071Y-6658214D01*
X8130214Y-6658214D01*
X8158786Y-6672500D01*
X8173071Y-6701071D01*
X8173071Y-6729643D01*
X8030214Y-6758214D01*
X8287357Y-6843929D02*
X8315928Y-6858214D01*
X8373071Y-6858214D01*
X8401643Y-6843929D01*
X8415928Y-6815357D01*
X8415928Y-6801071D01*
X8401643Y-6772500D01*
X8373071Y-6758214D01*
X8330214Y-6758214D01*
X8301643Y-6743929D01*
X8287357Y-6715357D01*
X8287357Y-6701071D01*
X8301643Y-6672500D01*
X8330214Y-6658214D01*
X8373071Y-6658214D01*
X8401643Y-6672500D01*
X8515928Y-6972500D02*
X8530214Y-6958214D01*
X8558786Y-6915357D01*
X8573071Y-6886786D01*
X8587357Y-6843929D01*
X8601643Y-6772500D01*
X8601643Y-6715357D01*
X8587357Y-6643929D01*
X8573071Y-6601071D01*
X8558786Y-6572500D01*
X8530214Y-6529643D01*
X8515928Y-6515357D01*
M02*
